<mxfile host="app.diagrams.net" agent="Mozilla/5.0 (Windows NT 10.0; Win64; x64) AppleWebKit/537.36 (KHTML, like Gecko) Chrome/131.0.0.0 Safari/537.36 Edg/131.0.0.0" version="25.0.0">
  <diagram id="C5RBs43oDa-KdzZeNtuy" name="Page-1">
    <mxGraphModel dx="1789" dy="1004" grid="1" gridSize="10" guides="1" tooltips="1" connect="1" arrows="1" fold="1" page="1" pageScale="1" pageWidth="1200" pageHeight="1920" math="0" shadow="0">
      <root>
        <mxCell id="WIyWlLk6GJQsqaUBKTNV-0" />
        <mxCell id="WIyWlLk6GJQsqaUBKTNV-1" parent="WIyWlLk6GJQsqaUBKTNV-0" />
        <mxCell id="zkfFHV4jXpPFQw0GAbJ--0" value="DataList" style="swimlane;fontStyle=2;align=center;verticalAlign=top;childLayout=stackLayout;horizontal=1;startSize=26;horizontalStack=0;resizeParent=1;resizeLast=0;collapsible=1;marginBottom=0;rounded=0;shadow=0;strokeWidth=1;" parent="WIyWlLk6GJQsqaUBKTNV-1" vertex="1">
          <mxGeometry width="160" height="294" as="geometry">
            <mxRectangle x="230" y="140" width="160" height="26" as="alternateBounds" />
          </mxGeometry>
        </mxCell>
        <mxCell id="zkfFHV4jXpPFQw0GAbJ--1" value="items    " style="text;align=left;verticalAlign=top;spacingLeft=4;spacingRight=4;overflow=hidden;rotatable=0;points=[[0,0.5],[1,0.5]];portConstraint=eastwest;" parent="zkfFHV4jXpPFQw0GAbJ--0" vertex="1">
          <mxGeometry y="26" width="160" height="26" as="geometry" />
        </mxCell>
        <mxCell id="zkfFHV4jXpPFQw0GAbJ--2" value="selected" style="text;align=left;verticalAlign=top;spacingLeft=4;spacingRight=4;overflow=hidden;rotatable=0;points=[[0,0.5],[1,0.5]];portConstraint=eastwest;rounded=0;shadow=0;html=0;" parent="zkfFHV4jXpPFQw0GAbJ--0" vertex="1">
          <mxGeometry y="52" width="160" height="26" as="geometry" />
        </mxCell>
        <mxCell id="k1KH_HDRuEAmuBHgqj1_-0" value="start_index" style="text;align=left;verticalAlign=top;spacingLeft=4;spacingRight=4;overflow=hidden;rotatable=0;points=[[0,0.5],[1,0.5]];portConstraint=eastwest;rounded=0;shadow=0;html=0;" vertex="1" parent="zkfFHV4jXpPFQw0GAbJ--0">
          <mxGeometry y="78" width="160" height="26" as="geometry" />
        </mxCell>
        <mxCell id="zkfFHV4jXpPFQw0GAbJ--4" value="" style="line;html=1;strokeWidth=1;align=left;verticalAlign=middle;spacingTop=-1;spacingLeft=3;spacingRight=3;rotatable=0;labelPosition=right;points=[];portConstraint=eastwest;" parent="zkfFHV4jXpPFQw0GAbJ--0" vertex="1">
          <mxGeometry y="104" width="160" height="8" as="geometry" />
        </mxCell>
        <mxCell id="k1KH_HDRuEAmuBHgqj1_-1" value="+select(index)" style="text;align=left;verticalAlign=top;spacingLeft=4;spacingRight=4;overflow=hidden;rotatable=0;points=[[0,0.5],[1,0.5]];portConstraint=eastwest;" vertex="1" parent="zkfFHV4jXpPFQw0GAbJ--0">
          <mxGeometry y="112" width="160" height="26" as="geometry" />
        </mxCell>
        <mxCell id="k1KH_HDRuEAmuBHgqj1_-2" value="+get_selected()" style="text;align=left;verticalAlign=top;spacingLeft=4;spacingRight=4;overflow=hidden;rotatable=0;points=[[0,0.5],[1,0.5]];portConstraint=eastwest;" vertex="1" parent="zkfFHV4jXpPFQw0GAbJ--0">
          <mxGeometry y="138" width="160" height="26" as="geometry" />
        </mxCell>
        <mxCell id="k1KH_HDRuEAmuBHgqj1_-5" value="+proceed_data_table" style="text;align=left;verticalAlign=top;spacingLeft=4;spacingRight=4;overflow=hidden;rotatable=0;points=[[0,0.5],[1,0.5]];portConstraint=eastwest;" vertex="1" parent="zkfFHV4jXpPFQw0GAbJ--0">
          <mxGeometry y="164" width="160" height="26" as="geometry" />
        </mxCell>
        <mxCell id="k1KH_HDRuEAmuBHgqj1_-6" value="+get_names" style="text;align=left;verticalAlign=top;spacingLeft=4;spacingRight=4;overflow=hidden;rotatable=0;points=[[0,0.5],[1,0.5]];portConstraint=eastwest;" vertex="1" parent="zkfFHV4jXpPFQw0GAbJ--0">
          <mxGeometry y="190" width="160" height="26" as="geometry" />
        </mxCell>
        <mxCell id="k1KH_HDRuEAmuBHgqj1_-4" value="+get_data" style="text;align=left;verticalAlign=top;spacingLeft=4;spacingRight=4;overflow=hidden;rotatable=0;points=[[0,0.5],[1,0.5]];portConstraint=eastwest;" vertex="1" parent="zkfFHV4jXpPFQw0GAbJ--0">
          <mxGeometry y="216" width="160" height="26" as="geometry" />
        </mxCell>
        <mxCell id="k1KH_HDRuEAmuBHgqj1_-3" value="#selected" style="text;align=left;verticalAlign=top;spacingLeft=4;spacingRight=4;overflow=hidden;rotatable=0;points=[[0,0.5],[1,0.5]];portConstraint=eastwest;" vertex="1" parent="zkfFHV4jXpPFQw0GAbJ--0">
          <mxGeometry y="242" width="160" height="26" as="geometry" />
        </mxCell>
        <mxCell id="zkfFHV4jXpPFQw0GAbJ--5" value="#selected=" style="text;align=left;verticalAlign=top;spacingLeft=4;spacingRight=4;overflow=hidden;rotatable=0;points=[[0,0.5],[1,0.5]];portConstraint=eastwest;" parent="zkfFHV4jXpPFQw0GAbJ--0" vertex="1">
          <mxGeometry y="268" width="160" height="26" as="geometry" />
        </mxCell>
        <mxCell id="zkfFHV4jXpPFQw0GAbJ--6" value="DataListStudentShort" style="swimlane;fontStyle=0;align=center;verticalAlign=top;childLayout=stackLayout;horizontal=1;startSize=26;horizontalStack=0;resizeParent=1;resizeLast=0;collapsible=1;marginBottom=0;rounded=0;shadow=0;strokeWidth=1;" parent="WIyWlLk6GJQsqaUBKTNV-1" vertex="1">
          <mxGeometry y="340" width="160" height="138" as="geometry">
            <mxRectangle x="130" y="380" width="160" height="26" as="alternateBounds" />
          </mxGeometry>
        </mxCell>
        <mxCell id="zkfFHV4jXpPFQw0GAbJ--9" value="" style="line;html=1;strokeWidth=1;align=left;verticalAlign=middle;spacingTop=-1;spacingLeft=3;spacingRight=3;rotatable=0;labelPosition=right;points=[];portConstraint=eastwest;" parent="zkfFHV4jXpPFQw0GAbJ--6" vertex="1">
          <mxGeometry y="26" width="160" height="8" as="geometry" />
        </mxCell>
        <mxCell id="zkfFHV4jXpPFQw0GAbJ--10" value="+get_names" style="text;align=left;verticalAlign=top;spacingLeft=4;spacingRight=4;overflow=hidden;rotatable=0;points=[[0,0.5],[1,0.5]];portConstraint=eastwest;fontStyle=0" parent="zkfFHV4jXpPFQw0GAbJ--6" vertex="1">
          <mxGeometry y="34" width="160" height="26" as="geometry" />
        </mxCell>
        <mxCell id="zkfFHV4jXpPFQw0GAbJ--11" value="+get_data" style="text;align=left;verticalAlign=top;spacingLeft=4;spacingRight=4;overflow=hidden;rotatable=0;points=[[0,0.5],[1,0.5]];portConstraint=eastwest;" parent="zkfFHV4jXpPFQw0GAbJ--6" vertex="1">
          <mxGeometry y="60" width="160" height="26" as="geometry" />
        </mxCell>
        <mxCell id="zkfFHV4jXpPFQw0GAbJ--12" value="" style="endArrow=block;endSize=10;endFill=0;shadow=0;strokeWidth=1;rounded=0;curved=0;edgeStyle=elbowEdgeStyle;elbow=vertical;" parent="WIyWlLk6GJQsqaUBKTNV-1" source="zkfFHV4jXpPFQw0GAbJ--6" target="zkfFHV4jXpPFQw0GAbJ--0" edge="1">
          <mxGeometry width="160" relative="1" as="geometry">
            <mxPoint x="-20" y="83" as="sourcePoint" />
            <mxPoint x="-20" y="83" as="targetPoint" />
          </mxGeometry>
        </mxCell>
        <mxCell id="zkfFHV4jXpPFQw0GAbJ--17" value="DataTable" style="swimlane;fontStyle=0;align=center;verticalAlign=top;childLayout=stackLayout;horizontal=1;startSize=26;horizontalStack=0;resizeParent=1;resizeLast=0;collapsible=1;marginBottom=0;rounded=0;shadow=0;strokeWidth=1;" parent="WIyWlLk6GJQsqaUBKTNV-1" vertex="1">
          <mxGeometry x="250" width="160" height="216" as="geometry">
            <mxRectangle x="550" y="140" width="160" height="26" as="alternateBounds" />
          </mxGeometry>
        </mxCell>
        <mxCell id="zkfFHV4jXpPFQw0GAbJ--22" value="data" style="text;align=left;verticalAlign=top;spacingLeft=4;spacingRight=4;overflow=hidden;rotatable=0;points=[[0,0.5],[1,0.5]];portConstraint=eastwest;rounded=0;shadow=0;html=0;" parent="zkfFHV4jXpPFQw0GAbJ--17" vertex="1">
          <mxGeometry y="26" width="160" height="26" as="geometry" />
        </mxCell>
        <mxCell id="zkfFHV4jXpPFQw0GAbJ--23" value="" style="line;html=1;strokeWidth=1;align=left;verticalAlign=middle;spacingTop=-1;spacingLeft=3;spacingRight=3;rotatable=0;labelPosition=right;points=[];portConstraint=eastwest;" parent="zkfFHV4jXpPFQw0GAbJ--17" vertex="1">
          <mxGeometry y="52" width="160" height="8" as="geometry" />
        </mxCell>
        <mxCell id="zkfFHV4jXpPFQw0GAbJ--24" value="+get_element(row,col)" style="text;align=left;verticalAlign=top;spacingLeft=4;spacingRight=4;overflow=hidden;rotatable=0;points=[[0,0.5],[1,0.5]];portConstraint=eastwest;" parent="zkfFHV4jXpPFQw0GAbJ--17" vertex="1">
          <mxGeometry y="60" width="160" height="26" as="geometry" />
        </mxCell>
        <mxCell id="zkfFHV4jXpPFQw0GAbJ--25" value="+rows_count" style="text;align=left;verticalAlign=top;spacingLeft=4;spacingRight=4;overflow=hidden;rotatable=0;points=[[0,0.5],[1,0.5]];portConstraint=eastwest;" parent="zkfFHV4jXpPFQw0GAbJ--17" vertex="1">
          <mxGeometry y="86" width="160" height="26" as="geometry" />
        </mxCell>
        <mxCell id="k1KH_HDRuEAmuBHgqj1_-7" value="+columns_count" style="text;align=left;verticalAlign=top;spacingLeft=4;spacingRight=4;overflow=hidden;rotatable=0;points=[[0,0.5],[1,0.5]];portConstraint=eastwest;" vertex="1" parent="zkfFHV4jXpPFQw0GAbJ--17">
          <mxGeometry y="112" width="160" height="26" as="geometry" />
        </mxCell>
        <mxCell id="k1KH_HDRuEAmuBHgqj1_-9" value="+data" style="text;align=left;verticalAlign=top;spacingLeft=4;spacingRight=4;overflow=hidden;rotatable=0;points=[[0,0.5],[1,0.5]];portConstraint=eastwest;" vertex="1" parent="zkfFHV4jXpPFQw0GAbJ--17">
          <mxGeometry y="138" width="160" height="26" as="geometry" />
        </mxCell>
        <mxCell id="k1KH_HDRuEAmuBHgqj1_-8" value="-valid_index?(row,col)" style="text;align=left;verticalAlign=top;spacingLeft=4;spacingRight=4;overflow=hidden;rotatable=0;points=[[0,0.5],[1,0.5]];portConstraint=eastwest;" vertex="1" parent="zkfFHV4jXpPFQw0GAbJ--17">
          <mxGeometry y="164" width="160" height="26" as="geometry" />
        </mxCell>
        <mxCell id="k1KH_HDRuEAmuBHgqj1_-10" value="DeepCopy" style="swimlane;fontStyle=0;align=center;verticalAlign=top;childLayout=stackLayout;horizontal=1;startSize=26;horizontalStack=0;resizeParent=1;resizeLast=0;collapsible=1;marginBottom=0;rounded=0;shadow=0;strokeWidth=1;" vertex="1" parent="WIyWlLk6GJQsqaUBKTNV-1">
          <mxGeometry x="500" width="160" height="216" as="geometry">
            <mxRectangle x="550" y="140" width="160" height="26" as="alternateBounds" />
          </mxGeometry>
        </mxCell>
        <mxCell id="k1KH_HDRuEAmuBHgqj1_-12" value="" style="line;html=1;strokeWidth=1;align=left;verticalAlign=middle;spacingTop=-1;spacingLeft=3;spacingRight=3;rotatable=0;labelPosition=right;points=[];portConstraint=eastwest;" vertex="1" parent="k1KH_HDRuEAmuBHgqj1_-10">
          <mxGeometry y="26" width="160" height="8" as="geometry" />
        </mxCell>
        <mxCell id="k1KH_HDRuEAmuBHgqj1_-13" value="+copy(obj)" style="text;align=left;verticalAlign=top;spacingLeft=4;spacingRight=4;overflow=hidden;rotatable=0;points=[[0,0.5],[1,0.5]];portConstraint=eastwest;fontStyle=4" vertex="1" parent="k1KH_HDRuEAmuBHgqj1_-10">
          <mxGeometry y="34" width="160" height="26" as="geometry" />
        </mxCell>
        <mxCell id="k1KH_HDRuEAmuBHgqj1_-14" value="-deep_clone_fallback(obj)" style="text;align=left;verticalAlign=top;spacingLeft=4;spacingRight=4;overflow=hidden;rotatable=0;points=[[0,0.5],[1,0.5]];portConstraint=eastwest;fontStyle=4" vertex="1" parent="k1KH_HDRuEAmuBHgqj1_-10">
          <mxGeometry y="60" width="160" height="26" as="geometry" />
        </mxCell>
        <mxCell id="k1KH_HDRuEAmuBHgqj1_-15" value="-clone_object(obj)" style="text;align=left;verticalAlign=top;spacingLeft=4;spacingRight=4;overflow=hidden;rotatable=0;points=[[0,0.5],[1,0.5]];portConstraint=eastwest;fontStyle=4" vertex="1" parent="k1KH_HDRuEAmuBHgqj1_-10">
          <mxGeometry y="86" width="160" height="26" as="geometry" />
        </mxCell>
        <mxCell id="k1KH_HDRuEAmuBHgqj1_-18" value="DatabaseConnection" style="swimlane;fontStyle=0;align=center;verticalAlign=top;childLayout=stackLayout;horizontal=1;startSize=26;horizontalStack=0;resizeParent=1;resizeLast=0;collapsible=1;marginBottom=0;rounded=0;shadow=0;strokeWidth=1;" vertex="1" parent="WIyWlLk6GJQsqaUBKTNV-1">
          <mxGeometry x="560" y="370" width="160" height="112" as="geometry">
            <mxRectangle x="550" y="140" width="160" height="26" as="alternateBounds" />
          </mxGeometry>
        </mxCell>
        <mxCell id="k1KH_HDRuEAmuBHgqj1_-20" value="client" style="text;align=left;verticalAlign=top;spacingLeft=4;spacingRight=4;overflow=hidden;rotatable=0;points=[[0,0.5],[1,0.5]];portConstraint=eastwest;fontStyle=0" vertex="1" parent="k1KH_HDRuEAmuBHgqj1_-18">
          <mxGeometry y="26" width="160" height="26" as="geometry" />
        </mxCell>
        <mxCell id="k1KH_HDRuEAmuBHgqj1_-19" value="" style="line;html=1;strokeWidth=1;align=left;verticalAlign=middle;spacingTop=-1;spacingLeft=3;spacingRight=3;rotatable=0;labelPosition=right;points=[];portConstraint=eastwest;" vertex="1" parent="k1KH_HDRuEAmuBHgqj1_-18">
          <mxGeometry y="52" width="160" height="8" as="geometry" />
        </mxCell>
        <mxCell id="k1KH_HDRuEAmuBHgqj1_-22" value="+instance" style="text;align=left;verticalAlign=top;spacingLeft=4;spacingRight=4;overflow=hidden;rotatable=0;points=[[0,0.5],[1,0.5]];portConstraint=eastwest;fontStyle=4" vertex="1" parent="k1KH_HDRuEAmuBHgqj1_-18">
          <mxGeometry y="60" width="160" height="26" as="geometry" />
        </mxCell>
        <mxCell id="k1KH_HDRuEAmuBHgqj1_-21" value="-new" style="text;align=left;verticalAlign=top;spacingLeft=4;spacingRight=4;overflow=hidden;rotatable=0;points=[[0,0.5],[1,0.5]];portConstraint=eastwest;fontStyle=4" vertex="1" parent="k1KH_HDRuEAmuBHgqj1_-18">
          <mxGeometry y="86" width="160" height="26" as="geometry" />
        </mxCell>
        <mxCell id="k1KH_HDRuEAmuBHgqj1_-23" value="StudentsList" style="swimlane;fontStyle=2;align=center;verticalAlign=top;childLayout=stackLayout;horizontal=1;startSize=26;horizontalStack=0;resizeParent=1;resizeLast=0;collapsible=1;marginBottom=0;rounded=0;shadow=0;strokeWidth=1;" vertex="1" parent="WIyWlLk6GJQsqaUBKTNV-1">
          <mxGeometry x="165" y="530" width="280" height="268" as="geometry">
            <mxRectangle x="230" y="140" width="160" height="26" as="alternateBounds" />
          </mxGeometry>
        </mxCell>
        <mxCell id="k1KH_HDRuEAmuBHgqj1_-24" value="adapter" style="text;align=left;verticalAlign=top;spacingLeft=4;spacingRight=4;overflow=hidden;rotatable=0;points=[[0,0.5],[1,0.5]];portConstraint=eastwest;" vertex="1" parent="k1KH_HDRuEAmuBHgqj1_-23">
          <mxGeometry y="26" width="280" height="26" as="geometry" />
        </mxCell>
        <mxCell id="k1KH_HDRuEAmuBHgqj1_-27" value="" style="line;html=1;strokeWidth=1;align=left;verticalAlign=middle;spacingTop=-1;spacingLeft=3;spacingRight=3;rotatable=0;labelPosition=right;points=[];portConstraint=eastwest;" vertex="1" parent="k1KH_HDRuEAmuBHgqj1_-23">
          <mxGeometry y="52" width="280" height="8" as="geometry" />
        </mxCell>
        <mxCell id="k1KH_HDRuEAmuBHgqj1_-28" value="+get_student(id)" style="text;align=left;verticalAlign=top;spacingLeft=4;spacingRight=4;overflow=hidden;rotatable=0;points=[[0,0.5],[1,0.5]];portConstraint=eastwest;" vertex="1" parent="k1KH_HDRuEAmuBHgqj1_-23">
          <mxGeometry y="60" width="280" height="26" as="geometry" />
        </mxCell>
        <mxCell id="k1KH_HDRuEAmuBHgqj1_-29" value="+get_k_n_student_short_list(k,n,data_list=nil)" style="text;align=left;verticalAlign=top;spacingLeft=4;spacingRight=4;overflow=hidden;rotatable=0;points=[[0,0.5],[1,0.5]];portConstraint=eastwest;" vertex="1" parent="k1KH_HDRuEAmuBHgqj1_-23">
          <mxGeometry y="86" width="280" height="26" as="geometry" />
        </mxCell>
        <mxCell id="k1KH_HDRuEAmuBHgqj1_-30" value="+add_student(student)" style="text;align=left;verticalAlign=top;spacingLeft=4;spacingRight=4;overflow=hidden;rotatable=0;points=[[0,0.5],[1,0.5]];portConstraint=eastwest;" vertex="1" parent="k1KH_HDRuEAmuBHgqj1_-23">
          <mxGeometry y="112" width="280" height="26" as="geometry" />
        </mxCell>
        <mxCell id="k1KH_HDRuEAmuBHgqj1_-31" value="+update_student(id,new_student)" style="text;align=left;verticalAlign=top;spacingLeft=4;spacingRight=4;overflow=hidden;rotatable=0;points=[[0,0.5],[1,0.5]];portConstraint=eastwest;" vertex="1" parent="k1KH_HDRuEAmuBHgqj1_-23">
          <mxGeometry y="138" width="280" height="26" as="geometry" />
        </mxCell>
        <mxCell id="k1KH_HDRuEAmuBHgqj1_-32" value="+delete_student(id)" style="text;align=left;verticalAlign=top;spacingLeft=4;spacingRight=4;overflow=hidden;rotatable=0;points=[[0,0.5],[1,0.5]];portConstraint=eastwest;" vertex="1" parent="k1KH_HDRuEAmuBHgqj1_-23">
          <mxGeometry y="164" width="280" height="26" as="geometry" />
        </mxCell>
        <mxCell id="k1KH_HDRuEAmuBHgqj1_-33" value="+student_count" style="text;align=left;verticalAlign=top;spacingLeft=4;spacingRight=4;overflow=hidden;rotatable=0;points=[[0,0.5],[1,0.5]];portConstraint=eastwest;" vertex="1" parent="k1KH_HDRuEAmuBHgqj1_-23">
          <mxGeometry y="190" width="280" height="26" as="geometry" />
        </mxCell>
        <mxCell id="k1KH_HDRuEAmuBHgqj1_-34" value="#adapter" style="text;align=left;verticalAlign=top;spacingLeft=4;spacingRight=4;overflow=hidden;rotatable=0;points=[[0,0.5],[1,0.5]];portConstraint=eastwest;" vertex="1" parent="k1KH_HDRuEAmuBHgqj1_-23">
          <mxGeometry y="216" width="280" height="26" as="geometry" />
        </mxCell>
        <mxCell id="k1KH_HDRuEAmuBHgqj1_-35" value="#adapter=" style="text;align=left;verticalAlign=top;spacingLeft=4;spacingRight=4;overflow=hidden;rotatable=0;points=[[0,0.5],[1,0.5]];portConstraint=eastwest;" vertex="1" parent="k1KH_HDRuEAmuBHgqj1_-23">
          <mxGeometry y="242" width="280" height="26" as="geometry" />
        </mxCell>
        <mxCell id="k1KH_HDRuEAmuBHgqj1_-36" value="StudentsListDB    " style="swimlane;fontStyle=2;align=center;verticalAlign=top;childLayout=stackLayout;horizontal=1;startSize=26;horizontalStack=0;resizeParent=1;resizeLast=0;collapsible=1;marginBottom=0;rounded=0;shadow=0;strokeWidth=1;" vertex="1" parent="WIyWlLk6GJQsqaUBKTNV-1">
          <mxGeometry x="5" y="860" width="280" height="220" as="geometry">
            <mxRectangle x="230" y="140" width="160" height="26" as="alternateBounds" />
          </mxGeometry>
        </mxCell>
        <mxCell id="k1KH_HDRuEAmuBHgqj1_-37" value="client" style="text;align=left;verticalAlign=top;spacingLeft=4;spacingRight=4;overflow=hidden;rotatable=0;points=[[0,0.5],[1,0.5]];portConstraint=eastwest;" vertex="1" parent="k1KH_HDRuEAmuBHgqj1_-36">
          <mxGeometry y="26" width="280" height="26" as="geometry" />
        </mxCell>
        <mxCell id="k1KH_HDRuEAmuBHgqj1_-38" value="" style="line;html=1;strokeWidth=1;align=left;verticalAlign=middle;spacingTop=-1;spacingLeft=3;spacingRight=3;rotatable=0;labelPosition=right;points=[];portConstraint=eastwest;" vertex="1" parent="k1KH_HDRuEAmuBHgqj1_-36">
          <mxGeometry y="52" width="280" height="8" as="geometry" />
        </mxCell>
        <mxCell id="k1KH_HDRuEAmuBHgqj1_-39" value="+get_student(id)" style="text;align=left;verticalAlign=top;spacingLeft=4;spacingRight=4;overflow=hidden;rotatable=0;points=[[0,0.5],[1,0.5]];portConstraint=eastwest;" vertex="1" parent="k1KH_HDRuEAmuBHgqj1_-36">
          <mxGeometry y="60" width="280" height="26" as="geometry" />
        </mxCell>
        <mxCell id="k1KH_HDRuEAmuBHgqj1_-40" value="+get_k_n_student_short_list(k,n,data_list=nil)" style="text;align=left;verticalAlign=top;spacingLeft=4;spacingRight=4;overflow=hidden;rotatable=0;points=[[0,0.5],[1,0.5]];portConstraint=eastwest;" vertex="1" parent="k1KH_HDRuEAmuBHgqj1_-36">
          <mxGeometry y="86" width="280" height="26" as="geometry" />
        </mxCell>
        <mxCell id="k1KH_HDRuEAmuBHgqj1_-41" value="+add_student(student)" style="text;align=left;verticalAlign=top;spacingLeft=4;spacingRight=4;overflow=hidden;rotatable=0;points=[[0,0.5],[1,0.5]];portConstraint=eastwest;" vertex="1" parent="k1KH_HDRuEAmuBHgqj1_-36">
          <mxGeometry y="112" width="280" height="26" as="geometry" />
        </mxCell>
        <mxCell id="k1KH_HDRuEAmuBHgqj1_-42" value="+update_student(id,new_student)" style="text;align=left;verticalAlign=top;spacingLeft=4;spacingRight=4;overflow=hidden;rotatable=0;points=[[0,0.5],[1,0.5]];portConstraint=eastwest;" vertex="1" parent="k1KH_HDRuEAmuBHgqj1_-36">
          <mxGeometry y="138" width="280" height="26" as="geometry" />
        </mxCell>
        <mxCell id="k1KH_HDRuEAmuBHgqj1_-43" value="+delete_student(id)" style="text;align=left;verticalAlign=top;spacingLeft=4;spacingRight=4;overflow=hidden;rotatable=0;points=[[0,0.5],[1,0.5]];portConstraint=eastwest;" vertex="1" parent="k1KH_HDRuEAmuBHgqj1_-36">
          <mxGeometry y="164" width="280" height="26" as="geometry" />
        </mxCell>
        <mxCell id="k1KH_HDRuEAmuBHgqj1_-44" value="+student_count" style="text;align=left;verticalAlign=top;spacingLeft=4;spacingRight=4;overflow=hidden;rotatable=0;points=[[0,0.5],[1,0.5]];portConstraint=eastwest;" vertex="1" parent="k1KH_HDRuEAmuBHgqj1_-36">
          <mxGeometry y="190" width="280" height="26" as="geometry" />
        </mxCell>
        <mxCell id="k1KH_HDRuEAmuBHgqj1_-47" value="StudentsListBase" style="swimlane;fontStyle=2;align=center;verticalAlign=top;childLayout=stackLayout;horizontal=1;startSize=26;horizontalStack=0;resizeParent=1;resizeLast=0;collapsible=1;marginBottom=0;rounded=0;shadow=0;strokeWidth=1;" vertex="1" parent="WIyWlLk6GJQsqaUBKTNV-1">
          <mxGeometry x="370" y="860" width="280" height="372" as="geometry">
            <mxRectangle x="230" y="140" width="160" height="26" as="alternateBounds" />
          </mxGeometry>
        </mxCell>
        <mxCell id="k1KH_HDRuEAmuBHgqj1_-58" value="-next_id" style="text;align=left;verticalAlign=top;spacingLeft=4;spacingRight=4;overflow=hidden;rotatable=0;points=[[0,0.5],[1,0.5]];portConstraint=eastwest;" vertex="1" parent="k1KH_HDRuEAmuBHgqj1_-47">
          <mxGeometry y="26" width="280" height="26" as="geometry" />
        </mxCell>
        <mxCell id="k1KH_HDRuEAmuBHgqj1_-56" value="file_path" style="text;align=left;verticalAlign=top;spacingLeft=4;spacingRight=4;overflow=hidden;rotatable=0;points=[[0,0.5],[1,0.5]];portConstraint=eastwest;" vertex="1" parent="k1KH_HDRuEAmuBHgqj1_-47">
          <mxGeometry y="52" width="280" height="26" as="geometry" />
        </mxCell>
        <mxCell id="k1KH_HDRuEAmuBHgqj1_-57" value="students" style="text;align=left;verticalAlign=top;spacingLeft=4;spacingRight=4;overflow=hidden;rotatable=0;points=[[0,0.5],[1,0.5]];portConstraint=eastwest;" vertex="1" parent="k1KH_HDRuEAmuBHgqj1_-47">
          <mxGeometry y="78" width="280" height="26" as="geometry" />
        </mxCell>
        <mxCell id="k1KH_HDRuEAmuBHgqj1_-48" value="strategy" style="text;align=left;verticalAlign=top;spacingLeft=4;spacingRight=4;overflow=hidden;rotatable=0;points=[[0,0.5],[1,0.5]];portConstraint=eastwest;" vertex="1" parent="k1KH_HDRuEAmuBHgqj1_-47">
          <mxGeometry y="104" width="280" height="26" as="geometry" />
        </mxCell>
        <mxCell id="k1KH_HDRuEAmuBHgqj1_-49" value="" style="line;html=1;strokeWidth=1;align=left;verticalAlign=middle;spacingTop=-1;spacingLeft=3;spacingRight=3;rotatable=0;labelPosition=right;points=[];portConstraint=eastwest;" vertex="1" parent="k1KH_HDRuEAmuBHgqj1_-47">
          <mxGeometry y="130" width="280" height="8" as="geometry" />
        </mxCell>
        <mxCell id="k1KH_HDRuEAmuBHgqj1_-50" value="+get_student(id)" style="text;align=left;verticalAlign=top;spacingLeft=4;spacingRight=4;overflow=hidden;rotatable=0;points=[[0,0.5],[1,0.5]];portConstraint=eastwest;" vertex="1" parent="k1KH_HDRuEAmuBHgqj1_-47">
          <mxGeometry y="138" width="280" height="26" as="geometry" />
        </mxCell>
        <mxCell id="k1KH_HDRuEAmuBHgqj1_-51" value="+get_k_n_student_short_list(k,n,data_list=nil)" style="text;align=left;verticalAlign=top;spacingLeft=4;spacingRight=4;overflow=hidden;rotatable=0;points=[[0,0.5],[1,0.5]];portConstraint=eastwest;" vertex="1" parent="k1KH_HDRuEAmuBHgqj1_-47">
          <mxGeometry y="164" width="280" height="26" as="geometry" />
        </mxCell>
        <mxCell id="k1KH_HDRuEAmuBHgqj1_-52" value="+add_student(student)" style="text;align=left;verticalAlign=top;spacingLeft=4;spacingRight=4;overflow=hidden;rotatable=0;points=[[0,0.5],[1,0.5]];portConstraint=eastwest;" vertex="1" parent="k1KH_HDRuEAmuBHgqj1_-47">
          <mxGeometry y="190" width="280" height="26" as="geometry" />
        </mxCell>
        <mxCell id="k1KH_HDRuEAmuBHgqj1_-53" value="+update_student(id,new_student)" style="text;align=left;verticalAlign=top;spacingLeft=4;spacingRight=4;overflow=hidden;rotatable=0;points=[[0,0.5],[1,0.5]];portConstraint=eastwest;" vertex="1" parent="k1KH_HDRuEAmuBHgqj1_-47">
          <mxGeometry y="216" width="280" height="26" as="geometry" />
        </mxCell>
        <mxCell id="k1KH_HDRuEAmuBHgqj1_-54" value="+delete_student(id)" style="text;align=left;verticalAlign=top;spacingLeft=4;spacingRight=4;overflow=hidden;rotatable=0;points=[[0,0.5],[1,0.5]];portConstraint=eastwest;" vertex="1" parent="k1KH_HDRuEAmuBHgqj1_-47">
          <mxGeometry y="242" width="280" height="26" as="geometry" />
        </mxCell>
        <mxCell id="k1KH_HDRuEAmuBHgqj1_-55" value="+student_count" style="text;align=left;verticalAlign=top;spacingLeft=4;spacingRight=4;overflow=hidden;rotatable=0;points=[[0,0.5],[1,0.5]];portConstraint=eastwest;" vertex="1" parent="k1KH_HDRuEAmuBHgqj1_-47">
          <mxGeometry y="268" width="280" height="26" as="geometry" />
        </mxCell>
        <mxCell id="k1KH_HDRuEAmuBHgqj1_-59" value="+students" style="text;align=left;verticalAlign=top;spacingLeft=4;spacingRight=4;overflow=hidden;rotatable=0;points=[[0,0.5],[1,0.5]];portConstraint=eastwest;" vertex="1" parent="k1KH_HDRuEAmuBHgqj1_-47">
          <mxGeometry y="294" width="280" height="26" as="geometry" />
        </mxCell>
        <mxCell id="k1KH_HDRuEAmuBHgqj1_-60" value="+read_all" style="text;align=left;verticalAlign=top;spacingLeft=4;spacingRight=4;overflow=hidden;rotatable=0;points=[[0,0.5],[1,0.5]];portConstraint=eastwest;" vertex="1" parent="k1KH_HDRuEAmuBHgqj1_-47">
          <mxGeometry y="320" width="280" height="26" as="geometry" />
        </mxCell>
        <mxCell id="k1KH_HDRuEAmuBHgqj1_-61" value="+write_all" style="text;align=left;verticalAlign=top;spacingLeft=4;spacingRight=4;overflow=hidden;rotatable=0;points=[[0,0.5],[1,0.5]];portConstraint=eastwest;" vertex="1" parent="k1KH_HDRuEAmuBHgqj1_-47">
          <mxGeometry y="346" width="280" height="26" as="geometry" />
        </mxCell>
        <mxCell id="k1KH_HDRuEAmuBHgqj1_-66" value="FileStrategy" style="swimlane;fontStyle=2;align=center;verticalAlign=top;childLayout=stackLayout;horizontal=1;startSize=26;horizontalStack=0;resizeParent=1;resizeLast=0;collapsible=1;marginBottom=0;rounded=0;shadow=0;strokeWidth=1;" vertex="1" parent="WIyWlLk6GJQsqaUBKTNV-1">
          <mxGeometry x="407.5" y="1520" width="170" height="100" as="geometry">
            <mxRectangle x="230" y="140" width="160" height="26" as="alternateBounds" />
          </mxGeometry>
        </mxCell>
        <mxCell id="k1KH_HDRuEAmuBHgqj1_-68" value="" style="line;html=1;strokeWidth=1;align=left;verticalAlign=middle;spacingTop=-1;spacingLeft=3;spacingRight=3;rotatable=0;labelPosition=right;points=[];portConstraint=eastwest;" vertex="1" parent="k1KH_HDRuEAmuBHgqj1_-66">
          <mxGeometry y="26" width="170" height="8" as="geometry" />
        </mxCell>
        <mxCell id="k1KH_HDRuEAmuBHgqj1_-76" value="+read" style="text;align=left;verticalAlign=top;spacingLeft=4;spacingRight=4;overflow=hidden;rotatable=0;points=[[0,0.5],[1,0.5]];portConstraint=eastwest;fontStyle=4" vertex="1" parent="k1KH_HDRuEAmuBHgqj1_-66">
          <mxGeometry y="34" width="170" height="26" as="geometry" />
        </mxCell>
        <mxCell id="k1KH_HDRuEAmuBHgqj1_-103" value="+write" style="text;align=left;verticalAlign=top;spacingLeft=4;spacingRight=4;overflow=hidden;rotatable=0;points=[[0,0.5],[1,0.5]];portConstraint=eastwest;fontStyle=4" vertex="1" parent="k1KH_HDRuEAmuBHgqj1_-66">
          <mxGeometry y="60" width="170" height="26" as="geometry" />
        </mxCell>
        <mxCell id="k1KH_HDRuEAmuBHgqj1_-77" value="JSONStrategy" style="swimlane;fontStyle=2;align=center;verticalAlign=top;childLayout=stackLayout;horizontal=1;startSize=26;horizontalStack=0;resizeParent=1;resizeLast=0;collapsible=1;marginBottom=0;rounded=0;shadow=0;strokeWidth=1;" vertex="1" parent="WIyWlLk6GJQsqaUBKTNV-1">
          <mxGeometry x="330" y="1336" width="140" height="100" as="geometry">
            <mxRectangle x="230" y="140" width="160" height="26" as="alternateBounds" />
          </mxGeometry>
        </mxCell>
        <mxCell id="k1KH_HDRuEAmuBHgqj1_-79" value="" style="line;html=1;strokeWidth=1;align=left;verticalAlign=middle;spacingTop=-1;spacingLeft=3;spacingRight=3;rotatable=0;labelPosition=right;points=[];portConstraint=eastwest;" vertex="1" parent="k1KH_HDRuEAmuBHgqj1_-77">
          <mxGeometry y="26" width="140" height="8" as="geometry" />
        </mxCell>
        <mxCell id="k1KH_HDRuEAmuBHgqj1_-84" value="+read" style="text;align=left;verticalAlign=top;spacingLeft=4;spacingRight=4;overflow=hidden;rotatable=0;points=[[0,0.5],[1,0.5]];portConstraint=eastwest;fontStyle=4" vertex="1" parent="k1KH_HDRuEAmuBHgqj1_-77">
          <mxGeometry y="34" width="140" height="26" as="geometry" />
        </mxCell>
        <mxCell id="k1KH_HDRuEAmuBHgqj1_-85" value="+wrte" style="text;align=left;verticalAlign=top;spacingLeft=4;spacingRight=4;overflow=hidden;rotatable=0;points=[[0,0.5],[1,0.5]];portConstraint=eastwest;fontStyle=4" vertex="1" parent="k1KH_HDRuEAmuBHgqj1_-77">
          <mxGeometry y="60" width="140" height="26" as="geometry" />
        </mxCell>
        <mxCell id="k1KH_HDRuEAmuBHgqj1_-104" value="YAMLStrategy" style="swimlane;fontStyle=2;align=center;verticalAlign=top;childLayout=stackLayout;horizontal=1;startSize=26;horizontalStack=0;resizeParent=1;resizeLast=0;collapsible=1;marginBottom=0;rounded=0;shadow=0;strokeWidth=1;" vertex="1" parent="WIyWlLk6GJQsqaUBKTNV-1">
          <mxGeometry x="530" y="1330" width="140" height="100" as="geometry">
            <mxRectangle x="230" y="140" width="160" height="26" as="alternateBounds" />
          </mxGeometry>
        </mxCell>
        <mxCell id="k1KH_HDRuEAmuBHgqj1_-105" value="" style="line;html=1;strokeWidth=1;align=left;verticalAlign=middle;spacingTop=-1;spacingLeft=3;spacingRight=3;rotatable=0;labelPosition=right;points=[];portConstraint=eastwest;" vertex="1" parent="k1KH_HDRuEAmuBHgqj1_-104">
          <mxGeometry y="26" width="140" height="8" as="geometry" />
        </mxCell>
        <mxCell id="k1KH_HDRuEAmuBHgqj1_-106" value="+read" style="text;align=left;verticalAlign=top;spacingLeft=4;spacingRight=4;overflow=hidden;rotatable=0;points=[[0,0.5],[1,0.5]];portConstraint=eastwest;fontStyle=4" vertex="1" parent="k1KH_HDRuEAmuBHgqj1_-104">
          <mxGeometry y="34" width="140" height="26" as="geometry" />
        </mxCell>
        <mxCell id="k1KH_HDRuEAmuBHgqj1_-107" value="+wrte" style="text;align=left;verticalAlign=top;spacingLeft=4;spacingRight=4;overflow=hidden;rotatable=0;points=[[0,0.5],[1,0.5]];portConstraint=eastwest;fontStyle=4" vertex="1" parent="k1KH_HDRuEAmuBHgqj1_-104">
          <mxGeometry y="60" width="140" height="26" as="geometry" />
        </mxCell>
        <mxCell id="k1KH_HDRuEAmuBHgqj1_-108" value="" style="endArrow=block;endSize=10;endFill=0;shadow=0;strokeWidth=1;rounded=0;curved=0;edgeStyle=elbowEdgeStyle;elbow=vertical;exitX=0.5;exitY=1;exitDx=0;exitDy=0;entryX=0.5;entryY=0;entryDx=0;entryDy=0;" edge="1" parent="WIyWlLk6GJQsqaUBKTNV-1" source="k1KH_HDRuEAmuBHgqj1_-77" target="k1KH_HDRuEAmuBHgqj1_-66">
          <mxGeometry width="160" relative="1" as="geometry">
            <mxPoint x="390" y="1557" as="sourcePoint" />
            <mxPoint x="489.5" y="1511" as="targetPoint" />
          </mxGeometry>
        </mxCell>
        <mxCell id="k1KH_HDRuEAmuBHgqj1_-109" value="" style="endArrow=block;endSize=10;endFill=0;shadow=0;strokeWidth=1;rounded=0;curved=0;edgeStyle=elbowEdgeStyle;elbow=vertical;exitX=0.5;exitY=1;exitDx=0;exitDy=0;entryX=0.5;entryY=0;entryDx=0;entryDy=0;" edge="1" parent="WIyWlLk6GJQsqaUBKTNV-1" source="k1KH_HDRuEAmuBHgqj1_-104" target="k1KH_HDRuEAmuBHgqj1_-66">
          <mxGeometry width="160" relative="1" as="geometry">
            <mxPoint x="610" y="1557" as="sourcePoint" />
            <mxPoint x="489.5" y="1511" as="targetPoint" />
            <Array as="points">
              <mxPoint x="517.5" y="1480" />
            </Array>
          </mxGeometry>
        </mxCell>
        <mxCell id="k1KH_HDRuEAmuBHgqj1_-111" value="" style="endArrow=diamondThin;endFill=0;endSize=24;html=1;rounded=0;entryX=0.5;entryY=1;entryDx=0;entryDy=0;exitX=0.5;exitY=0;exitDx=0;exitDy=0;exitPerimeter=0;" edge="1" parent="WIyWlLk6GJQsqaUBKTNV-1" source="k1KH_HDRuEAmuBHgqj1_-104">
          <mxGeometry width="160" relative="1" as="geometry">
            <mxPoint x="675" y="1306" as="sourcePoint" />
            <mxPoint x="515" y="1230" as="targetPoint" />
            <Array as="points">
              <mxPoint x="600" y="1256" />
              <mxPoint x="515" y="1256" />
            </Array>
          </mxGeometry>
        </mxCell>
        <mxCell id="k1KH_HDRuEAmuBHgqj1_-112" value="" style="endArrow=diamondThin;endFill=0;endSize=24;html=1;rounded=0;entryX=0.5;entryY=1;entryDx=0;entryDy=0;exitX=0.5;exitY=0;exitDx=0;exitDy=0;" edge="1" parent="WIyWlLk6GJQsqaUBKTNV-1" source="k1KH_HDRuEAmuBHgqj1_-77">
          <mxGeometry width="160" relative="1" as="geometry">
            <mxPoint x="430" y="1332" as="sourcePoint" />
            <mxPoint x="515" y="1232" as="targetPoint" />
            <Array as="points">
              <mxPoint x="400" y="1258" />
              <mxPoint x="515" y="1258" />
            </Array>
          </mxGeometry>
        </mxCell>
        <mxCell id="k1KH_HDRuEAmuBHgqj1_-113" value="" style="endArrow=diamondThin;endFill=0;endSize=24;html=1;rounded=0;entryX=0.429;entryY=0.923;entryDx=0;entryDy=0;entryPerimeter=0;" edge="1" parent="WIyWlLk6GJQsqaUBKTNV-1" target="k1KH_HDRuEAmuBHgqj1_-35">
          <mxGeometry width="160" relative="1" as="geometry">
            <mxPoint x="170" y="860" as="sourcePoint" />
            <mxPoint x="290" y="800" as="targetPoint" />
            <Array as="points">
              <mxPoint x="170" y="824" />
              <mxPoint x="285" y="824" />
            </Array>
          </mxGeometry>
        </mxCell>
        <mxCell id="k1KH_HDRuEAmuBHgqj1_-114" value="" style="endArrow=diamondThin;endFill=0;endSize=24;html=1;rounded=0;entryX=0.429;entryY=0.923;entryDx=0;entryDy=0;entryPerimeter=0;" edge="1" parent="WIyWlLk6GJQsqaUBKTNV-1">
          <mxGeometry width="160" relative="1" as="geometry">
            <mxPoint x="400" y="860" as="sourcePoint" />
            <mxPoint x="285" y="796" as="targetPoint" />
            <Array as="points">
              <mxPoint x="400" y="824" />
              <mxPoint x="285" y="824" />
            </Array>
          </mxGeometry>
        </mxCell>
        <mxCell id="k1KH_HDRuEAmuBHgqj1_-118" value="use" style="html=1;verticalAlign=bottom;endArrow=open;dashed=1;endSize=8;curved=0;rounded=0;entryX=0.038;entryY=0.846;entryDx=0;entryDy=0;entryPerimeter=0;" edge="1" parent="WIyWlLk6GJQsqaUBKTNV-1" target="zkfFHV4jXpPFQw0GAbJ--25">
          <mxGeometry relative="1" as="geometry">
            <mxPoint x="160" y="110" as="sourcePoint" />
            <mxPoint x="240" y="110" as="targetPoint" />
          </mxGeometry>
        </mxCell>
        <mxCell id="k1KH_HDRuEAmuBHgqj1_-120" value="use" style="html=1;verticalAlign=bottom;endArrow=open;dashed=1;endSize=8;curved=0;rounded=0;entryX=0.038;entryY=0.846;entryDx=0;entryDy=0;entryPerimeter=0;" edge="1" parent="WIyWlLk6GJQsqaUBKTNV-1">
          <mxGeometry relative="1" as="geometry">
            <mxPoint x="407.5" y="102" as="sourcePoint" />
            <mxPoint x="503.5" y="100" as="targetPoint" />
          </mxGeometry>
        </mxCell>
        <mxCell id="k1KH_HDRuEAmuBHgqj1_-121" value="use" style="html=1;verticalAlign=bottom;endArrow=open;dashed=1;endSize=8;curved=0;rounded=0;entryX=0.025;entryY=0.115;entryDx=0;entryDy=0;entryPerimeter=0;exitX=0.421;exitY=0.014;exitDx=0;exitDy=0;exitPerimeter=0;" edge="1" parent="WIyWlLk6GJQsqaUBKTNV-1" source="k1KH_HDRuEAmuBHgqj1_-36" target="k1KH_HDRuEAmuBHgqj1_-20">
          <mxGeometry relative="1" as="geometry">
            <mxPoint x="60" y="520" as="sourcePoint" />
            <mxPoint x="448" y="400" as="targetPoint" />
            <Array as="points">
              <mxPoint x="120" y="520" />
              <mxPoint x="200" y="520" />
              <mxPoint x="200" y="400" />
            </Array>
          </mxGeometry>
        </mxCell>
        <mxCell id="k1KH_HDRuEAmuBHgqj1_-122" value="" style="shape=image;verticalLabelPosition=bottom;labelBackgroundColor=default;verticalAlign=top;aspect=fixed;imageAspect=0;image=data:image/png,iVBORw0KGgoAAAANSUhEUgAAA4IAAAMhCAYAAAC9gQ8hAAAAAXNSR0IArs4c6QAAAARnQU1BAACxjwv8YQUAAAAJcEhZcwAADsMAAA7DAcdvqGQAAKNWSURBVHhe7d1/jFXpfd/xZ9r+YRkwvyxhqAMLWkSCK4ELOJCs+SHhVEgLwYRI0FgQBbVKgKVJ+QNW8lIVIguk0koUqFUJ11AqaI3ZXXCFrFAxsE7AXujCP7iUFbOQLRgp/AoQWZWqqd8P57l75nDujxmYYeae90s6uveee+75NXfuPZ/zfZ5zO7p/JUiqrI6OjuDHgFTO/w9JUrv6e9mtJEmSJKkiDIKSJEmSVDEGQUmSJEmqGIOgJEmSJFWMQVCSJEmSKsYgKEmSJEkVYxCUpJxLly6FYcOGxZ8NYFi4cGF48uRJfI7btWvXhjt37sTHrWKeM2fO7PXrkuJyuZ/Wj4H1ZRmSJEmtMghKUoagtW7dunDu3Ln423EMkyZNChs2bIjPnzlzJty8eTOMGDEiPm7V7du3w6hRo3r9uiS/3BRKmWdax23btoU9e/bE8ZIkSa0wCEpShnD12muvhWnTpmVjQti0aVO4cuVKOHToUFi2bFk4e/ZsDIaERqqFqUp38uTJWKkDYY3nUkXxwIEDYcmSJWH48OFxulTJy1cbqegtX748fPvb3+7xHNPnl3vt2rXw6NGjHqFy+vTp2b1n8hXDtE7IVzvzVcT8+jKwTEmS1N4MgpKUIQA+fPgwfOUrX6kFvFmzZoXLly+HNWvWxOHEiRPh4MGD4eLFi7FaOH78+Djd1atXYyAjVL355psx+FGt4/b999+PzxGwVq1aFV+bqo379u2LryeEMh0BLz1HJXDp0qU9lst0I0eOjKEyOXbsWC0M7tq1K94yj8ePH8fQSOBjvTZv3hyOHj0an+OWx3fv3o3ry/IYz7q98847te2XJEntySAoSRnCVWdnZ1i/fn2YMGHCc1UzQhXjkYJfkh4T3pCakxLiZsyYEZuG7t69OzbjJFxi5cqV8XXgdufOnWHLli3xcVK2XKqTqXrHwHLT6775zW/GwFjEthFKqS4SSAmYbOvPfvaz0NXVFZcNwjBVUQKnJElqXwZBSSogVKWq2fz582MYpLpGtZBARjg7f/58WLx4cZyex5g9e3YMaqkZaJL6BxK4tm7dWgtwhDIU50c1juaoLKtsuamimAaWSSWQ5//5P//ntfmzzI8++qgWItku5kcgpQLIcnjtrVu34jTpNX/xF38Rp5ckSe3LIChJv0KVLN9nD1TNqNqdPn06hi8QlPLhDGX99pL0OoLh5MmTe1zkhYHqXXF+qRrH40bLTagIEuhSNZLpmDfNSVkmr6WvIGExVT3Z1jRvqoH5dXr69GmtailJktqTQVCSfoVqHhW7FKZAJZDHVOoIWlTRCFIEtVTlo6q2YsWKWr89QtmpU6dioOS5jRs3xtd96UtfivNM4Yt5T5w4Md7m5wce05yU/of1lpuwjP3798fAmsfyU+WvuF4MXIUU+fEgMOYvMCNJktqTQVCSfoXQdfz48Xgxl9S0kmah7777bqyOEZjom0dVLV1UhkA2d+7cWHVLQYwqIuErPUfzT15LGCOYpfnn503Fcd68eXEaEP54DfLLJQimC8qkdaQ6uHfv3rjcRYsWxdfwPAPrkaQ+i+k5mq/ymvz6Mj+U9TGUJEntpaObdkCSKouDfz8GpHL+f0iS2pUVQUmSJEmqGIOgJEmSJFWMQVCSJEmSKsYgKEmSJEkVYxCUJEmSpIoxCEqSJElSxRgEJUmSJKli/B1BqeL4MfRPPvkkeyQp77XXXgtdXV3ZI0mS2odBUKo4fzBbqs//D0lSu7JpqCRJkiRVjEFQkiRJkirGIChJkiRJFWMQlCRJkqSKMQhKkiRJUsUYBCVJkiSpYgyCkiRJklQxBkFJpS5duhRmzpwZ7ty5k435zK5du8LChQvDkydPsjGSJEkaSgyCkkrNmjUrXL58OYwfPz4bI0mSpHZhEJRUqlgRPHnyZOjo6AjDhg0L58+fj+MkSZI0NBkEJTVFKFy1alU4ceJEuHv3bnj48GH2jCRJkoYig6Ckpm7fvh3mzJkTFi1aFIYPHx42b96cPSNJkqShyCAoqamrV69m9yRJ7Y6TfnQFcHB4FQPvPw0Mg6CkpqZPn57dkyS1u87OztDd3e3g8EoG3n8aGAZBSU3Nnj07dHV1hTNnzsSfjNi9e3f2jCRJkoYig6CkpvgJib1794Zly5aFESNGhDfeeCOMGjUqe1aSJElDTUc3NVhJlUV7fD8GpHL+f6iKfN/rVfL9N3CsCEqSJElSxRgEJUmSJKliDIKSJEmSVDEGQUmSJEmqGIOgJEmSBr1Lly6FYcOGxYuJMCxcuDD+pBG4Xbt2bbhz50583CrmOXPmzF6/Lu+tt96K82Edli9fHu/nMW+WURyft2vXrjg02o5W1zWtj9SMQVCSJEmDGuFn3bp14dy5c/GKkgyTJk0KGzZsiM/zO7c3b96MP3HUG7dv344/h9Tb1yUErg8++CBMmDAhDB8+PIwcOTLOM+/QoUNh9erVYdasWdmY5129ejVMnz49zuPgwYPxZ5uKWlnX/PpIzRgEJUmSNKgRgl577bUwbdq0bEwImzZtCleuXIlBi9+5PXv2bC0YUlU7efJkvE+IpHrILRU37qeK4oEDB8KSJUtiACNEpYojITNV3lKl77vf/W58noFpGebPnx/XgaDHdIQ5Ql3CPE6dOhXWrFnTY9kMVADB+EePHsXwxjqz7ml8K+vaaH3y0+W3Ke0Tqofp9aoeg6AkSZIGNQLgw4cPw1e+8pVamKHCdvny5RiyGE6cOBGraTxPdXD27NlxulRJ+3t/7++FN998M4YpKorcvv/++zG8pRB19OjR+Nz69evD1q1b4+sfP34cPvroo/jc3bt34+2ePXvi8rdt2xZ27twZOjs7Y0ArBkFCKsuhwkdITctmnQiIrCvzp5LINqbKICGu3rrymnx1tN76XLt2LXzzm9+sTcc2pYDI8j/88MPw5S9/OTx9+rRhtVLtyyAoSZKkQY2QRbghzFA5y1ex8hU1FJtQ8pig9bOf/Sw+TlVDwuOMGTPi6whSK1euDEuXLo3PLV68OM4zhaavfvWr4Uc/+lFcj7wU3BLmlV5HYMtXAwloW7Zsyab8zMWLF+Mt807zo6krytYVP/nJT0rDW3592CZen6ZjHiB4sk1z5sypzV/VZBCUJEnSkECQSlUwKniEQYIN1cIUkk6fPh3mzZtXC22EI0Iet1TW8mGOwEhIpIJI9S4126SayDxRnN+xY8dqVbt8AAX3eR3rlK8G8nju3Lm1+afXEFZTeMtXMuutK68jOPK6NC+axRbXJ90n0CaEv7RNZfNX9RgEJUmSNGjRb47+bISbhMod4Y6QlipqqQKYghV4zfnz53uEtST/OkIWjwmZaUjNPYvzI6zxmKaXn3zySY955+eVqoEgFLINad5UB+mzl59/sZKZl9aV5q27d++OzWCZDwFzwYIFddcnj31FVZH5s0/yIVHVZBCUJEnSoEWFrKurq9ZcElQCeUyYIUilUJWvioGmj/Tv4zFhiXDGNFTfNm7cGF83bty4WBUkKIHnGE8ALc6P4AXWqSy4sQ7MiypdqgYWMf/9+/fH9cnPn/nxWuZRb11pEpvHPqCvX3p9Wp+0Hmmb2F/bt2+P4blYQVV1GQQlSZI0aBGmjh8/HlatWlVrDkmz0HfffTf2fyM0UXHjKpwEIJpxEtSYDlTimAdVRMIUQYlmmqlJJajQEc54DQFp7969cXqqbEhXK82HLaYjhBX72TFPqnT58VQGqTAy/9dffz32OUR+/vnKY711Zfs2b94cHzOvd955J/b1Q3F99u3bF8Mk07E/aE7LfBtVHlUtHd3UlSVVFl8QfgxI5fz/UBX5vter5Ptv4FgRlCRJkqSKMQhKkiRJUsUYBCX1Wv4KbmvXro39MiRJkjR0GAQl9RqdzdNltSVJkjT0GAQl1UXlj07bDFT+UhUwVQR37NgRr9S2detWq4KSJElDiEFQUqn0u0X8aC2/OcQP6Bb92Z/9WbwkNpfd3rJlSzZWkiRJg51BUFKpixcvhsmTJ4dFixbVfrdIkiRJ7cEgKKkUP2wrSaqe1157rdYtwMFhoAfefxoYBkFJpaZPn57dkyRVySeffBJ/0NvB4VUMvP80MAyCkkrNnj07dHV1hTNnzsQLxOzevTt7RpIkSUOdQVBSqfHjx4e9e/eGZcuWhXHjxoU33ngje6YnKodeNVSSJGlo6eimBiupsmiP38rHAD8fgYMHD8ZbqQpa/f+Q2onve71Kvv8GjhVBSaUuXboUhg0bFj+QGfj5iH379mXPSpIkaSizIihVnGfepPr8/1AV+b7Xq+T7b+BYEZQkSZKkijEISpIkSVLFGAQlSZLU1J07d8KkSZNqFw9LuGp0cRw/O7Rw4cLnxp88eTI2/SuOT/Nm4H6xn3oa0vONMO/i65gX80RaVqNpUFyH4vNly2Fgf6Rl5K+oXW+fSK+KQVCSJEktO3bsWI9AVIbfoAUXGisGt1/7tV8LV65c6TH+4sWLsV/Y6NGjszEhjB07tjY+DcyPnzdqZs2aNT1et23btrB58+YYxpITJ070mObp06dh1qxZ8TkCK7+ne/To0drz3F+xYkWP9S4uh2HLli1xHY8fPx4vspb2Vbrgmhde02BhEJQkSVJLCGrf+MY3ngtVRYRFpqEqdujQoWzsM1OmTAmvvfZaDHkJ0xOq+svixYvDw4cPw+PHj7Mx9bFdu3fvDjt37gxLly7NxoawaNGiMHny5B7r3QihcsOGDXE/dHZ2xgDIfIcPH55NIb1aBkFJkiS17E//9E/jbar6FVExo3JHRW3Tpk3h/Pnzz4XGf/SP/lEMf0jT/+Zv/mZ83B9Onz4dRo0aFUaMGJGNqe/atWvhxo0bMTzmEeAIdPlw2AxBEIRI7qeKozQYGAQlSZLUMsIUVa6NGzc+1+wTVMyoBNI8ctq0aXEc4SqPkJWah6bpJ0yYkD37zL1792KYzPe/a7V/HVXI/Ov2798fjhw50qMat2zZsh7T0H8vBdYxY8bU1od1zPcpzPf7Ky6n2I+Q5S1ZsiR8/vOffy5YSq+aQVCSJEm9QlWM4FRs9gkqfSkgERrff//9WJHLIyDSPPT27dtx+unTp2fPfKasj+DBgwezZxtLffdoCrpgwYKwfv365/oWFvsIUu1LQfH+/ftx3cDrqFgyTbH5arGPYL6fIQiFNAltpTmtNNAMgpIkSeo1mn0Scmj6mRB8aDKaD3DcpxqXrx4SEOfNmxe+//3vx8pgf1XLCHb0y9u+fXu8AEwrCKn0YyyG194i9BH+aBJ6+PDhOM4LxWgwMQhK6tGsxcHB4bNBUn3pYihU/BLCEyEqNQkFTSwfPHgQA2EeVcC9e/fGvnv56V821pOrhhIIW6nIER4JcFu3bu0RHrlfVgGtJ/UP5DYFUoJgsyuuSgPFICipR7MWBweHzwZJjRFyaHoJQtapU6din7jUxBI0raQZKUHol7/8ZTY2xP5/EydOfG76pKyPYLEPXqtowtnV1dWjIlfsI8iQgh9NX2kaSj/I9NyqVatimOXnIZJiH0EG+jHSj5Amr/mrhKbgXPwJCulV6fjVF53fdFKF8aXlx4BUzv8PVZHve71Kvv8GjhVBSZIkDRlU7QgLZUOrVxWVZEVQqjy+OP0YkMr5/6Eq8n2vV8n338CxIihJkiRJFWMQlCRJkqSKMQhKkiRJUsUYBCVJkiSpYgyCkiRJklQxBkFJkiRJqhiDoCRJkiRVjEFQkiRJkirGICipoV27dsWhkUuXLoXly5eHJ0+e1B7PnDkz3LlzJz4uw7QLFy4MJ0+ejNMxPa/Lj2+E55nu7t27LU3fzNq1a+M80nzTtiSs46RJk3q1nPx+KN7P7y9JkqSBZhCUVBeB5fz582HDhg3ZmHKzZs0K8+bNC/v27as9vnz5chg/fnx8XGb48OGhs7MzLF26NBvzTL3x9QwbNqxX05dJ4Y55MDA/1uNF1dsPxf0lSZI00AyCkuras2dPWLduXY9QREWLihm3eWvWrAmnTp16rvpFyOI+Q0dHRwxuPJ8qfz/4wQ/C6tWrw5UrV8L8+fPDBx980KPCxy2vS0OxIvf06dPa9FQu89MypGomy2TZjKOyl9af9Thw4EDYtGlTfMx8UkUwrSOvYR3rYV7Mk+mYnm1leWk/EAZXrFgRt3Hu3Llx+vz+kiRJGmgGQUmlCCg3b94Ms2fPzsY0RtWLMHTx4sVszGcIQDt27AiPHz8Oc+bMiQEz+dznPheOHDkSZsyYEc6dOxe++tWvZs88C29UI5lnd3d32LlzZ9i9e3fdJpVbtmyJ0zHcvn07znPx4sVxWwhiR48ejc8R1gh2zOfatWvxtdOmTYu3eakSynpv3rw53Lp1Kz4u2rp1a5wn816yZEm4fv169swz48aNC8ePH4/rc+HChbivGu0vSZKk/mYQlFSKIDVq1KgwYsSI+DhV5iZMmBDOnj0bb/MVN0yfPj1cvXo1e/SZiRMnxkBJZZGg1CqaUBK+uAXzbwXBj8ob4ZPXprCVQi3Vv4cPH8aAx3aOHDnyuaagVBoJwgRAnlu0aFFYsGBB9uxnWBZBN1UUqfRNnTo13m+m3v6SJEnqbwZBSaUISISlhL5zqdJGIOKWx1Thmpk8eXItUPYWF3EhcDIsW7YsG1sfVT6qfevXr+/Rb5BAmcIrgZCqHdtQL4gREru6urJH9TGP+/fvZ48kSZKGBoOgpFKEJiqCrxJVSC7ckkLniRMnsmfqozknVcdiQCW8Eu6YDwMVP6qF9aqMBFcCbDPspzFjxmSPJKl90QIi9YfOD5ywyz9f7MtNy5E0TZJamaQh37okzaf4mvx88v2+8wOv4/WN5E8wpiH1X0e97cxPg+I6FJ8vWw4D25GWkd/u1C+9uN1SfzEISipFwEnNJ/Po20Y4K14JE1TXWm2+2Vt8QdI/sJH05VkMgVQAqe6dOXMmPuaLNx0ssJ2PHj16rt8hX+gEytQnkdfSJLaI/UDfv9Tv8dChQ8/1EaynP/eXJPUXTsqlk2p8R9CMvhj+GuEzeOPGjbWTfMyDi2cVA9CxY8d6BKuisWPH1vqQp4F1Kft+KqIZf/5127Zti10B8t8F+e1kSCcQwfby3ZL6njNwn/7o+SBaXA4D31GsI33HuXp02sZ0JWmvKK2BYhCUVIovKcJSqxcz4YuvNxeXyaP6RvWRq4Z+9NFH2dgQ++VRlSOsccGVVatWlYZT/PKXv4zLJ4jlz7xyYJG+cHk947Zv3x4fMz5dJCZdNCYvXSyG9SMQ/u7v/m58zLamK4OCi9gQjpn3p59+WtpHkG148OBB7aqhL7K/JGmwoA813xWt9nfms48LhKXPYDAPxtHfOn2ujh49OnzjG994Lpz1Fy4sVu/7pSidmOSzP98FIX1ntfq9Sajke4Zt5DuEAMh8i33Wpf5iEJRUFxdA4acVWvkSJoBRQeOLnS+39Pt5xd/l40zowYMH42PG83y6z9nWr3/968+N5wwqz/3xH//xc/MlIHL7+7//+7Vp8wPLAuvEPNK80lldlsFPZKSKXn5988vn9r333ovPs3zWJeExoY7pfud3ficGPoJffj+kaRi4n99fkjRUEez4fGy1dQMhiRN/xSs1pxOCp0+fzsaE8Kd/+qfxNrXm6E8sN3+BtEY4cXjjxo0YHvPSdwbfE61KJxwJkdxP303SQDAISqqLL6RWfvicM7it/PD8YJW+tFtt2kQwpvLHgQz3028NMlB1zJ/pLjPU95ekauPCXekzj5NexYtz5Z9n4Cd2miFEUVnMI5RRLaMZKYGz6N69e7FVRX5ZrfavK7Ye2b9/f6xKsh5JcTv4rE8nRukbzraDdWPd03T5fn/F5RT7EbI8Tgp+/vOffy5YSv3NICipISp4xT53RQRGqmX5L9Chhsphq2dx2c4///M/j7cMqWpYrDbW0w77S1J1FfvOFb8jis/ThLKv+FwmgBGoisr6CKZWIM2kvns0BeViYoTZ4gm84nbwWZ8+t7laNH0ckVp8MA3zzSv2ESx+RxAKOdk6kM1gpcQgKEmSpAFBBY++eMV+2VTV6CNYVhWjmwJhiZYULxvBjn559B1vtVUIrUGmTJnSoxlrXxD6CH+0Djl8+HAc54ViNJAMgpIkSRoQVM/4rdf81TUJRIzjCsxlLSoYR1h6//33szEvF/PnqqHpKtHNEB4JcDR5zYdH7pdVLutJ3QO4TYGUIJhvOir1J4OgJEmSBgxNSffu3Rv72NFvjr6A9JNr1KyTsEQTzryyPoLFPnitogknPzOUr8gV+wgypOBHk1WahtJ/MT1HH3Gaquabyhb7CDLQj5F+hPw8Rv4qoSnwFn+CQuovHd00WJZUWXwp+TEglfP/Q1Xk+16vku+/gWNFUJIkSW2Dqh1homxo9aqiUhVYEZQqji9GPwakcv5/qIp83+tV8v03cKwISpIkSVLFGAQlSZIkqWIMgpIkSZJUMQZBSZIkSaoYg6AkSZIkVYxBUJIkSZIqxiAoSZIkSRVjEJQkSZKkijEISmpo165dcWjk0qVLYfny5eHJkyfZmN47efJkWLhwYbh792685XER4yZNmhTu3LmTjSm3du3apusM5sP8+PFahuIy07a/jO2TJEkaTAyCkuoiAJ0/fz5s2LAhG1Nu1qxZYd68eWHfvn3ZmL4bNmxY6OzsDEuXLs3G9J+tW7eG9evXh+7u7nDx4sW4nWwz8tv+MrdPkiRpMDAISqprz549Yd26dWH48OHZmGdVNCp2xarcmjVrwqlTp+L4YkWO+4wDVbdUgSurwj19+rRHRZBARjhk2mPHjsVxCfNN82EapmXcoUOHYshL65BfJvOmssd63rx5M643CHuLFi0Kp0+fjo+L257fPkmSpKHOICipVApKs2fPzsY0Nn78+NjMksraypUrY2gicDFwn3EENSpsTEMVbufOnWH37t11m1yyDitWrAjbtm2L0+cR7vbv3x9u374dn2P+hLctW7bE0Ma8uZ9f5uPHj+Nrecz6UnnkFqwD2zt9+vTSbc9vnyRJ0lBnEJRUioA1atSoMGLEiPg4VdUmTJgQzp49G295nK/8EaKuXr0an7tx40a4du1aHB4+fBhDFVW3W7duxds0fSOsw+jRo2tVu02bNsXHoOkoYS0FuXrzosI3ZcqUMG3atFjd27x5c3xdPnxy/8033wxLliyJ8y1ue5K2T5IkaagzCEoqRRgiwCUEJCpvjF+wYEG85TFVtyJCF+GLaQhiM2bMqAU2moimZprLli2L4+rh9Q8ePMge9UR4o5lnmhdNQeshuBLq0jK7urpq1UFQISQEpm0pbrskSVK7MQhKKkVVj6pYX1B5I1jRp48KGs02QVWR5pgpRJ44cSKOr4d1SBXAonThFgId86IpaD1UFJkmDflKIs1Ar1y5EhYvXhwf40W2XZLaFZ+X+SstpyH10U59ulNf7CSduEvT5XFysDg9y5k5c2ZtWqZJ/cxbldaluK75+eRPTOaHfEuX4knH4vP1lpOucM206X7Cd2HZvpAGmkFQUinCEFWxfOUMBKh837o8Ql9qokmwIggybVk/Q75c6R/YCJVFAhkXfwF9AMsqhHzB0l+wDOtx5syZHgcU+YMOtuPy5cu15qqot+357ZOkquIkXv7kGhf5Sp+hY8eOjZ/TdAtIuM84nsvjc5kTc8hP/7KwvNQnnYGTkHwnEcSS4olChtQ6hO+Wr3zlKzHIpeeYB983+XkUl8OQTjgyL75zUqsV5rlx48Zw9OjRHt870qtgEJRUii+w3lwchS83vvhS6CPEzZkzJ34BptDIVTknT54cg9a4cePCqlWrSgNXQmWRsLh9+/Z4hvULX/hCfD348qaJJ00+586dG95+++1a3z/CWrpqKF+0VA9ZL+bBQcCRI0dqVwNlvfNnnlG27cXtkyQ9b8yYMWH+/Pm1KzCD+4zjuTzG03qEgRN9/Y3Pdr6TWu3rzUlIvnPyPx3EPPjZoeJVrBuhxUoKoHw3sQ4D8RNJUjMGQUl1cXGWAwcO9GiyUw9fmHyZp9BH0OKL7+DBg/Ex0jjOlnIG+Y//+I9jNY7X8KXIcwREbtOXJEGOaXnNv//3/z4+x/QMBLN05pV58RzL4Aws49NZ3dS/MU2b1hHcL1YEUdz24vZJkspRRctfOZrfZP2d3/md7Nln0nhabXBij89mTrj1J+bP90QrLTtYP7aBz/104jDhuyX/3dYM3xt79+6NfdRZfqOuDNJAMghKqotw1MoPqVNNa+WH54eS/La34/ZJUl8RaPL94fLN7fG1r30ttvZIV47Gr//6r8fbJI2n9QhBqTctUFp17969WmsQBlqjUM3LV+M4yZfflmLfvXxozPcpzG9zcTkMxT6NPD9x4sQerWSkV80gKKkhznymylo9hKb33nvvubOmQ13a9nbdPknqi2IfwdQaIyHocLVo+tPR/HPkyJHPfX4y/v33369d0ZlA1pvmlq3I991jnQli6eeIkmIfwXx/R+SbkVIFTPPKK+sjWKwY0iSUZqbsq3z/QulVMghKkiTppeJq0TSvp3llunJ0QhNNLriSD5SERq7gnK/GvUxUAanGrV69ukf1sh6CK81CUxPXF0HwIwDSP50molwspr+bwUqtMAhKkiTppaIZ5l/8xV/Ei3oVL7KVmoDmx1MZ5CrR+YvMvGz0zWN9uJJ0K9JFyfLdAghwBLlWEWy5MBoBkEppCqSNfvtWGigGQUmSJLWs2EeQodjcsezK0QlNQIvjUwWOSuHdu3ezsZ8p9uUr9sFrBcujj2C+Ilecb37eTM9FbJCeS/0M881hy/oI0tfwxz/+cVixYkWsiOb7JaariOZ/j1B6FTq6qcdLqiy+sPwYkMr5/6Eq8n2vV8n338CxIihJkqQhhSaXVN0IDcWBauOL9uuTqsCKoFRxfGn6MSCV8/9DVeT7Xq+S77+BY0VQkiRJkirGIChJkiRJFWMQlCRJkqSKMQhKkiRJUsUYBCVJkiSpYgyCkiRJklQxBkFJkiRJqhiDoCRJkiRVjEFQUkO7du2KQyOXLl0Ky5cvD0+ePImP79y5E2bOnBnH95e1a9eGkydPxoH7kiRJap1BUFJdBLnz58+HDRs2ZGPKzZo1K8ybNy/s27cvG9O/CH9YunRpHJDGSZIkqTmDoKS69uzZE9atWxeGDx+ejXlW7Vu4cGG8zVuzZk04depU+Pjjj8Pq1avDlStXwvz582OYpFLIazo6OuLQSmgrviZVJRl/4MCBsGnTpvgY3GdcqkhKkiSpMYOgpFIEvZs3b4bZs2dnYxobP358mDRpUvj5z38ejhw5EmbMmBHOnTsXq4Wpovj48eNw4sSJsGrVqqbNRqkuMr/u7u5w+/btGDJZp2vXrsXnp02bFm+R7qfnJEmS1JhBUFIpwteoUaPCiBEj4mOqeFTmJkyYEM6ePRtv85U6TJ8+PVy9ejV79AxVOgLl5s2bY2Vx0aJFYc6cOeH06dPZFM0RMjs7O+Mt6zVy5MgeVUruM47nJEmS1JxBUFIpQtXDhw+zR8/646Xq3IIFC+Itj7ds2ZJNUY4qYFdXV/boWWij0tdMmm9qGpqakxaDpiRJknrPICipFBU/KoIviori5MmTs0efVQhbcfDgwVr4fOedd2JzUqqOkqRXh8/iYcOG1U7UcT/f3J8rOdNapNjXOz8wvlG/7uIy0pC/SjT3i88z5FuqlK1D/vl6y+GEJd0RmDbdTzgxWdxmaSgyCEoqRRCkIkhFLy/fTLOIal0xqKUK4O7du+MX8pkzZ8KHH34YFi9enE1RLh1IJIRS1onh0aNHPQ4guM84npMk9R9CEH3Hjx49Gk/UMXB/xYoVz11EjM9/vi+Y5uLFi+HXfu3X4i2PGZ9v4l9m7NixtekZOCnI6/IXHONCZen5NKQWJazPV77ylVp/cwbmsX///h7zKC6HgROWfM8xL4Lk1q1b47TMc+PGjXGb6QMvDWUGQUml+ALky5Mvx1bw5ZguLkMVkOCWrhqaflaC8cuWLWvpC3Tnzp3xy5ozswQ8+hiyTmUXhim7gIwk6eXipBsn9fh8Tj/dA/p+0/Kj1e+LvuI7gFDWaheBQ4cOxfXK/7QR81i/fn04duxYNqY5tjcFUAIh65DffmmoMghKqqs3P8vAF+6SJUvil2w6C/z06dMY+PJnhRla+QJlPgTL4muYFz9pwU9bJGU/cyFJerk46Xbjxo3nWnSkz/j+DkeccGQ5rXQR4HuLq03zvVT8bqDKR9eDVvF9tHfv3ngik+UTDKV2YBCUVFerPxRP1a+VH57Pq9cvg6FZ35F0sMHZ2dS8x7OzktT/xowZU2uGTzCj5Uj67M43538Z7t27F1uZpPmzXKp5+c97TkKm5xmKfffyoTHfpzD/PVNcDkO+LyJ4fuLEifF1BEOpHRgEJTXEmdPU36IeAuN7773Xq4ocr6FimCp++YEzrs3mxdlcDgYYenNmV5LUd/fv34/97JBvuUFfvZct33eP36AliBWXU+wjmFqiJPlmpOkCZMwrr6yPYPF7hSahNDPl+ynfv1AaygyCkiRJaop+2FOmTOnV78C+LJz0oxq3evXqlrorcDKRZqE0D21l+kYIfgTAI0eOxCaiXCyGaqg01BkEJUmS1BThigt3UR3LV8W4TxPN/kbfPH6XlqtPt4JqIdPnuy2kq362imamq1atigGQCmgKpOkqotJQZhCUJElSSwhCNA0lTKX+dAQlmlY260bwoghi9BHMV+SKfQQZUv++1HQV6bnUzzDfBaGsjyB9DX/84x/Hn8VYuXJl3O4kXUX0ZfeJlAZaRzcNoSVVFl94fgxI5fz/UBX5vter5Ptv4FgRlCRJ0oB6kStHS3o5rAhKFceXrh8DUjn/P1RFvu/1Kvn+GzhWBCVJkiSpYgyCkiRJklQxBkFJkiRJqhiDoCRJkiRVjEFQkiRJkirGIChJkiRJFWMQlCRJkqSKMQhKkiRJUsUYBCU1tGvXrjg0cunSpbB8+fLw5MmTbMzLtXbt2qbr0EjZ6xl38uTJOHBfkiSpSgyCkuoi4J0/fz5s2LAhG1Nu1qxZYd68eWHfvn3ZmMGN8IelS5fGAWmcJElSFRgEJdW1Z8+esG7dujB8+PBsTAh37twJCxcujLd5a9asCadOnaqN53bSpEmho6Mj3qbxhMthw4Y9N54gNnPmzDjwHNMwLZW8Q4cOha1bt9aqetwyTX66hOpeeo55Fl9P1fLAgQNh06ZN2StCvM+4/qpoSpIkDTYGQUmlCGg3b94Ms2fPzsY0Nn78+BjsLl68GAPV6tWrw969e0N3d3dYv359DGLMc8WKFWHbtm1xPIGS6VIAu3LlStixY0d4/PhxmDNnTgyiW7ZsiSFz586d8T7hbv/+/eH27dtxHitXrozTIQVFxrMe77zzTnxt/vXXrl2L00ybNi3eIt1Pz0mSJLU7g6CkUgStUaNGhREjRsTHBDCqbBMmTAhnz56NtzxO4QvTp08PV69ejYHq4cOHtRBJADt48GCc5+jRo2MwA5W4Gzdu1ALYxIkT42uoQC5ZsiSOK6IpJwGV4AmWCcIkFUmCIWiuevny5dp0CeswcuTIHlVO7jOO5yRJkqrAICipFKGIMJcQwKi0MX7BggXxlseEvCKee/DgQfboM8XxhMkxY8Zkj0KYPHlyLXjWQ+Cjkpiaf1JpBFXErq6ueL8RgqokSVLVGQQllSKkURHsC15L5a+oOJ5geP/+/exRa9IFaQh+BFGafIIASZBsJlUQJUm9k++DnR/y/b2LJ+sY8i1HGimbf74fOMtIfc/rTYN8X/Sy5+ttB+uZlpFf57RNXmFa7cYgKKkUoY2KIIErj6aWnZ2dzzW5BNU2ghavpfJHPz3whcqXKM0vGc/FW0DfvilTpvTor9cbfGHTXxA07+TL+9ixY/ExX/o0Nc1/+YN1e/ToUa1fIrjPOJ6TJJWjiX9qGcLn64kTJ+Lj1Fyfz+SvfOUr8bOY8WlaPqdbvTIzXQfSaxnoU7558+Yen9lpuWl4+vRp7A4AlkMXg6NHj9ae5z7901NYRXE5DLRwYTuOHz8eTzqm7490AnKoXBlbapVBUFIpvgz5Mk9hrhm+YNPFZdIX6apVq+JZVg4Cjhw5El5//fU4fvv27XE8gZLx+f56ZQiX6aqffHnTBJQK4Ny5c8Pbb78dl8tBAl/S3GferAePOTjIv77swjBlF5CRJPUOJ/lomZEPTHwfcMGwdJKutxYvXlx6UrIM3wO7d++OLUXSTwNh0aJFcb1a/T7je4OfTSKA8j3F9jDfZt9V0lDT0c0pEEmVRWiq9zHA2VCu4nn48OGmX4CpGU1Zn8HBhjPGHJRwdhs09+EiM/kDBwmN/j+kdtXsfc+JP07EcWXo9LlJCHvzzTfjhb76+j2Qml6mz2bw3cKFwH70ox/FMFhcbh7fWd/85jfDu+++W6sQlilbTlHaHi6Olq46rYHh5+7AsSIoqS6+SFv5oXi+fFv54fnBIh1AEAhTcyVDoCS9uHw/7HxfPLoH5Jt31kNVMb2GIbUoyZ+MXLZsWY9p8vPmAmSpmT+BNd+nMJ2wRHE5xX6ELI9Q+/nPfz5WJaV2ZBCU1BBnQZudCSUwvvfee0Oq2Qxnggl/DI3OCkvSUPe9732vpaaVL0P+ysx8tlLZoU9fq1LfPdaXK1TTrJTmpXnFPoI030zfP1yAjH6J4HV0F2Ca9LNFSbGPYL6fIQiFnAT9xje+8VwfRaldGAQlSZLaFEHoX/yLfxH+4T/8h+Ff/+t/3W+BMFXQaMb5MkIT86NfHn3KW73QDP28uQDZ6dOnszF9w/oT/mjlQtcINGsZIw1FBkFJkqQ2Nnbs2PDTn/40/J//83/Cl7/85X4LhOliXvluAjTP3LhxY/aod6jQcdVQAmEr4ZLwSIDj4mD58Mj9dLXqVqT15zYFUoJgvumo1A4MgpIkSW3uN37jN8J//I//MVy4cKHfAmFqionU947+ejTvzDff7I0ULvMVuWIfQYZ8f2+ahhI+03NcwZorhua7ORT7CDLQp5F+hFxMLH+VUAIpobD4ExTSUOdVQ6WK48vPjwGpnP8fGuoIZvS1++STT7Ixz/z85z8P/+7f/bvwX//rfw3/8l/+yzjwszzwfa9XyfffwLEiKEmSVDH5CuGnn37ar01GE6p2HOSXDeknHSQNHCuCUsXxBezHgFSO/w/1HZf1p0mgXi36CP7N3/xN9qjcf//v/z32r/vN3/zN2GzS7wW9Kh6XDByDoFRxfuBK9fn/oaGuXtPQhCai//bf/tvw3/7bf6s1Ef3CF77g+16vjJ+7A8emoZIkSRVDAPxn/+yfhblz58ZmoTQP/Vf/6l/V+glKan8GQUmSpIowAEpKDIKSJEltzgAoqcggKEmS1Mbu3bsXLwJjAJSU58VipIqzU7ZUn/8fagff+973wu///u+3HP583+tV8v03cAyCUsX5gSvV5/+Hqsj3vV4l338Dx6ahkiRJklQxBkFJDe3atSsOjVy6dCksX748PHnypPZ45syZ4c6dO/FxHvPiR6bz0/Lau3fvxlseS5IkqX8ZBCXVRSg7f/582LBhQzam3KxZs8K8efPCvn37ao8vX74cxo8fHx/XQxjcsWNHeOedd8K4cePiLY9TSJQkSVL/MAhKqmvPnj1h3bp1Yfjw4dmYEKt8VPSK1b41a9aEU6dOxfHFiuDJkydjm/9hw4bFYJmcOXMmjBw5MgZHcMtjxkuSJKn/GAQllSLE3bx5M8yePTsb0xjVv0mTJoWLFy9mY54hFK5atSqcOHEiNv98+PBh9kwIx44dCytXrswePcNjxkuSJKn/GAQllbp9+3YYNWpU7XLjqao3YcKEcPbs2XjL43z/wenTp4erV69mj55hPnPmzAmLFi2KlcXNmzfH8U+fPg2PHj2K88njMeNtHipJktR/DIKSShHg8tW7pUuXxss5M37BggXxlsdbtmzJpihXDIbJ48ePwyeffJI9kiRJ0kAyCEoqRWWOiuCLokpYhkrja6+9lj2SJA12dBmgCwCtQfIDLUaKaNVBf/K1a9f2eFx8LQPjP/7449J507e82dWkeZ7piq9NywatV4rPF6cBj+s9X285rDf7hmWk+wn7ppVtkF4Fg6CkUgRBKoJU7vLoC9jZ2Vl6RVCqf8XgRx/Drq6ueAEYDgR2794dx/PFyIVhqCzm8Zjx+QvUSJIGD/p80yKEgX7h9AMvhsF00S/6mhOM+EznuyO95td+7dfiLY8Zz3cC8vNmoBtBuqBYI2PHjq3Nj4HvEuabXy9as/Cdlp//wYMH43MpqLK+aRpueZzvAlFcDgPT8J1ICxnmsXXr1jgt271x48Zw9OjRlrZBGmgGQUml6l38pR6+8MouLsN89u7dG5YtWxargG+88Uat0lh2YZiyC8hIkgYnAs62bdviSb58324+y+kTzvfIoUOHsrEDh+8eQlm97glFBFdOWh45cqR2IjL1a+eK2Plta2Tnzp21AEogZB3oWiENRgZBSXVt2rQpHDhwoKUvQL7olyxZEr98OTDI/45g6l/I8Od//ufhvffei1+wXECGC8OkJjPc8pjxkqShYfHixT1akORPDPI9ws8GtRqkXhbWgUBWr3tCEcGV0Ja+txK+v5hPq61U8ic/eR3BUBqsDIKS6iLQ5X8ovh4CXCs/PF/EF2v6EXl+WiL9uHyrX7iSpMGHliRUAglF06ZNi+OuXbsWb5shQOX73xHOWgmR9+7di8EzvY7uDevXr+9RjeOK17RMyc8/33Q0HxrzfQrz/f6Ky2Eo9jPk+YkTJ5YGS2kwMQhKaog+D82uDEpgTFW+3kqvHTduXLzlsSRp6KA/3oMHD7JHz6prtBIhJBG83n///XD69Ons2caKfQRbrcbl++4xD4LYmjVrsmefKesjmA+K+WakfO/xPPMcPXp0Nra8j2DqZ5jQJHTy5Mm1JqLSYGUQlCRJUp8RoAg+hD5aiNDfLh+WuE/fu1RV62+EO6pxq1evbrlJKn3TCW4vuo4EP+bD9tJElIvFDNR2S71lEJQkSVKfEPy2b98eL6pC5Y7K35QpU2pNQkEzTSqGBMKBQt+8dMXqVtA3nTCbD4/csl35amcj7AuuoEoApEloCqTpKqLSYGMQlCRJUsvy/fjoD8fPIxB6CE5cYZMLh+WbcxKKCETFK4uWKfYRZOhL80qWSR/BfEWurI9g6oPI+lLJY93TNNzSPzD9PATK+gjy0xc//vGPw4oVK2JlMd/cNF1FNP8TFNJg0dFNzV5SZfEl5seAVM7/D1WR73u9Sr7/Bo4VQUmSJA1aNLmk6kZAKA6poiep96wIShXHF6kfA1I5/z9URb7v9Sr5/hs4VgQlSZIkqWIMgpIkSZJUMQZBSZIkSaoYg6AkSZIkVYxBUJIkSZIqxiAoSZIkSRVjEJQkSZKkijEISpIkSVLFGAQlNbRr1644NHLp0qWwfPny8OTJk2xM36xdu7bpsljGwoULw8mTJ7Mx5dJ0/DAt822GaZgnQyvTS5IkDWUGQUl1EfDOnz8fNmzYkI0pN2vWrDBv3rywb9++bEz/GT58eOjs7AxLly7NxpR7/PhxvL19+3Y4ePBgvF9PCpXMM823WdCUJEkaygyCkuras2dPWLduXQxfyZ07d2Kljdu8NWvWhFOnTtXGE6SoxqWKHK9JFcP8c2k8lcBDhw6FrVu3NqwK5iuCBNWZM2fWKn8MjGcd5s6dG86ePRtef/31OB3DsGHD4jSTJk2qrSfzO3DgQNi0aVN8DO4zLq2vJElSuzEISipFULp582aYPXt2Nqax8ePHx4B18eLF+NqNGzeGEydOxMoc80kIZFQYmS5V7Xi8ZcuWGCZ37twZ77fq+vXrYcmSJaG7uzu+fvfu3WHEiBHhwoULYcaMGeHcuXNhwoQJYcWKFWHbtm1xOoLj6tWrY9C7du1anM+0adPiLdL99JwkSVK7MQhKKkWTylGjRsVQhVTFI1RRaeOWx/nq3fTp08PVq1djyJs8eXJYtGhRrCZu3rw5myKE06dPhylTpsSwlZ4jKPa1+jZ27NiwePHieH/lypXxtohtGT16dAyKoOJ348aNGPR4buTIkT2qntxnHM9JkiS1I4OgpFKEoIcPH2aPnvWfo5rG+AULFsRbHpdV7wiDjRAkCZgEyWXLloWurq5adbC3xowZE0NpI6zrgwcPskchTs/r0GxdJUmS2pFBUFIpwhIVwb6gMtgIlTlCZBqoCNK0tL+wLVQEE4Lh/fv34/1m6ypJel6x7zfoFkAXgeKVl2k5wrj0fLEfeL3xRcyDE4j5gb7fdDlAmk+jaZDvM172fNlyGFi/snVlH7AvitstDXYGQUmlCE9UBIuVOgIbV+0sC25U1whW9CukynfmzJn4BUm/vYRmnIxPX7p8cRYPJl42toWKIBejARfBSc1Tee7Ro0c9ls99xvGcJKknPr9T3++yvtTHjh3rEawSvjeOHz8erzCdf56LhPE90Er/8OKJRPp+08Ug/xlO//T8NE+fPo1XtwbdHPiOOnr0aO157tOPnJCXFJfDwPqVbUO6YvZAXDlbepkMgpJK8WXHWU/6+7WCL9B0cRleu3fv3tjsc9y4ceGNN97Ipnr2UxN8WTIdZ1gJlUeOHIn98giRza4a2hfpi3v79u3PLbPswjBlF5CRJD1DX28u0sXAibU8Wl984xvfeC6cJXwHcIGw9Dxh6sqVK/FCYX3BycWyk5ZlWB4nJllW/ieI6M9Ov/ZWv+/y28D3Cd9pzDff11waCgyCkurqzc8oUG3joIDQhdSnkDOxf/3Xfx1DZfqSTM8x5JuFcrY1nXWth3mk3xHky/jy5cs9lslzTMM4nktngbllXYrLZFp+IiN/MFP2sxmSpGdhit+XJYBRNePzNF9Jw5/+6Z/GW1p/lOF1tBqhckeY2rFjR+0zubcIpfkLmzXCST4uFJYuMJbkv1dalX5flxDJ/fRdIw0lBkFJdfHF1soPxXNGN//D8zzO97/gQKE3TWbyvzNYHPqjD0b68me5DOjNAYEkVUW+xQThrazlCKGMgMfPCBVDIngdrUb+4A/+ID4mTLWKk47574T9+/fXWngktEbJT5PvfpC/wFjq75emy7dGKS6n2I+Q5XHy8/Of//xzwVIaKjq6OT0uqbL4gvNjQCrn/4eqqNH7nrBEE/48KnwHDx6MwYpwREsSTiRy4i5dkIs+5EyTEMzefPPNGBhbPfGWTgQyn/R6lpdakbD8uXPnxpBZNk+C3De/+c3w7rvvPlfBS+vKvPLLqSfN6x//438cm6b+6Ec/shXJS+Ln7sCxIihJkqSmCFpU4PIXY+EqzPTxy1fLEroX0BqEFiMvG6GLfnn0/U4tOZqhismFwmhO+iIIoQRYWsEcPnw4jutNqxdpsDAISpIkqanUBJSLfSU0A6WPXlm4oupGWHr//fezMS8X8+eqoQTC1PSzEcIjAY6KZj48cj9dVboVqRsEtymQEgTLwrA0mBkEJUmS1BQ/C0F/u/yFXVJfOSqFd+/ezcZ+hrC0YMGC7NHLly48k6/IFfsIMuT7f1PFpP9iem7VqlUx5OYvVFbsI8hAk1GaxrIf8lcJTYG3+BMU0mBnH0Gp4vhy82NAKuf/h6rI971eJd9/A8eKoCRJkl45qnaEgLIhXcBF0stjRVCqOL5g/RiQyvn/oSryfa9XyfffwLEiKEmSJEkVYxCUJEmSpIoxCEqSJElSxRgEJUmSJKliDIKSJEmSVDEGQUmSJEmqGIOgJEmSJFWMQVCSJEmSKsYgKKmhXbt2xaGRS5cuheXLl4cnT55kY+o7efJkWLhwYZx27dq1z82bcUzDwH1JkiS9fAZBSXUR8M6fPx82bNiQjSk3a9asMG/evLBv375sTH1Lly4NnZ2dYfjw4dmYzxD+wDQMSOMkSQOno6PDweGVDBo4BkFJde3ZsyesW7euR2i7c+dOrOhxm7dmzZpw6tSp2ngCXPpQp7KXqoCM5/6OHTvCoUOHwtatW2NVkOcOHDgQNm3aFF8P7jOulUqjJOnl6e7udnB4JYMGjkFQUikC3c2bN8Ps2bOzMY2NHz8+TJo0KVy8eDG+duPGjeHEiRPh8ePHcT5Ff/ZnfxbD486dO8OWLVvCtWvX4vhp06bFW6T76TlJkiS9HAZBSaVu374dRo0aFUaMGBEfpwrfhAkTwtmzZ+Mtj/N9/KZPnx6uXr0aw+DkyZPDokWLYjVx8+bN2RT1sbyRI0f2qD5yn3E8J0mSpJfHICipFOHr4cOH2aNn/fZossH4BQsWxFseU80rIgz2Vl9eI0mSpL4xCEoqRcWPimBfUBnsrb68RpIkSX1jEJRUiiBIRZA+fnn0BeSqn9wWUdUj0NGvsKurK5w5cyZe6GX37t3ZFPWxvEePHvW4MAz3GcdzkiRJenkMgpJK5S/+0or8xWV47d69e8OyZcvCuHHjwhtvvJFN1ROhMV01tOzCMGUXkJEkSdKL6+j2Oq1SpXHBl3ofA/yOID/zcPjw4dLf/ctLF40p6zOYfhj+4MGD8bYeLkhz7Nix2nS8buXKlbXfFJQGWqP/D6ld+b7Xq+T7b+BYEZRUV6s/FF/84XkeDxs2LH6YM1ApbPXH5kEgZIAhUJIk6eWzIihVnGfepPr8/1AV+b7Xq+T7b+BYEZQkSZKkijEISpIkSVLFGAQlSZLUMi4Oli4QVg99xZcvX97jJ4F6i77iCxcuDHfv3o23qe94HuO4wjVXrgbrRdNCBl6TX/6LrBOvnTlzZm05QxUXYSvbj6omg6AkSZJaUrw4WD2tXmysFVx8jN+vbXbxMNbtyJEj4fbt27GPGQExrSfhj6tgv/POO02vgt3Odu7cGX/bd6gHWr0cBkFJkiS1ZM+ePWHdunU9whShgupbMVysWbMmnDp1Ko6nEpWvInI//bQQFapUxWMoVqyePn3aoyJI4EtXpuYnh5LTp0+H1atXx9+yxaZNm8KVK1fi8s+cORNGjhwZAyrzyVcL89U+BgJkWpe0jnnF1+e3hXE8V29bkKaZMWNGbZpGr+N+Gs9y8svOP5fGF6uXTJOeY98sWbIkHDp0KD6najMISpIkqSmCBT8HNHv27GxMY4QOQtXFixfjb8ISCgkjDNxnHKGFqh3TUMVLFasUdIpYhxUrVoRt27Y9d2VJfsc2/1u2VAZHjRoVRowYEQMjywPr//Dhw3Dt2rX4mABJKGM6guT69evjvFknAiTr2Cq2hW3m9SdOnAirVq2q+3rCGtNR6az3OrZ348aNcdzjx4/j/k/y+47nwGPCLtXPrVu3xv3ItlMpTeF98eLFsapbbx+rOgyCkiRJaiofrJCqURMmTAhnz56NtzzOV/6mT58erl69Gp+7ceNGDF8MBDECGaHl1q1b8TZN3wjrMHr06FhtBFU/HhexbgQoAhAePXoU1wGsP9tBAMyHUoISTVBTmGT6MWPGxPutILTx+hQ4Fy1aFObMmRPXuUza1kavI+RNnjw5jmP9Nm/eHKcB6z9lypQwbdq02nMERbYpNaP97d/+7bicVCUF28X+T+FR1WUQlCRJUlMEEwJEQtiggsX4BQsWxFse56tyCWGF0MI0qQKXwgnNHVPzxmXLlsVx9fD6Bw8eZI/KUSmjL+CFCxfiMgg8n3zySfZsiKGJ5pEE1HwoRb6pJYHp+vXrcXxvsA28nsBJQGY5ZYqht+x19V6bMB3Tp33X1dVVC3iEZMan0CwVGQQlSZLUFMGISlpfpPBFM0XCTap+EbyohqUQSRPIRliHsgpgXjFoEpRee+21eD+heST9Bz/88MPatPlmmCngTp06NXtFffmwxrqlZq5pKAvGRfVe16xCSsjLv4aKINtCVZDmoW+++WZsIiqVMQhKkiSpqXpNCgkehLkUvPIISSnMEL4Igkxb1s+Q8EL/wEaoLBJG08VOuHhNsUJIgDp48GD26FkI5UIxBLskzedP/uRPaqG0iGXUqwgSIKkmpmadYPsJlawTqExyURvCbiONXsd+ospHX8Xi/mF/5vsw5i8kw9VauWrrn//5n8fn8uvAfsg38VV1GQQlSZLUFIElXfylFYSk/MVlCF/0fSOspNBI3zf6wBEyx40bFy+S0qj/GqGOMLR9+/bY7PELX/hCfH1e/iqeCWEvf4XRVKGcOHFibf1YJy4Uk5posg5lffxoEsv8eN3cuXN7NGclgLHNvJ7nuagN07MvuDhMCm1F9V7HOu3duzcug/3zxhtvZK949hMdvI7peR2BlD6RhEP6PXLhGHABHprKpmVTMSUksg9UbR3d1JElVRZfHn4MSOX8/1AVNXrfEyZocnj48OGmQSJdNKaVppH9jSrZt771rRiI0oVpBtp3v/vdGCxfZPkp4OYrnr1BIOXKqATGFMYHGz93B44VQUmSJLWEENPKD8UTGFv54fmBQmglBBJiCYUDjWV++umnsSraG+zH9JuJDFQNm+37RugvyNVFB2sI1MCyIihVnGfepPr8/1AV+b7Xq+T7b+BYEZTUEE178r8JlXCWcvny5S90ZpV50GeCpip9RTOZtH6N5pd/jk7zqUN9q5r17yiqt9/y8uvU2/kPdY3+Vq3g9S/6/pMkqcoMgpLq4mC7XtOeVpsHDRas7+XLlwekOUyj/aaXY6i9/yRJGmwMgpLq4lLW69atq3tBAH6/iCuTpapO/keB81dsIxilPg5ccS5VwFasWBF/x4mrrjWrDFFdS/NmXsyTcVzemz4P3/72t3vM78c//nG8GhwDy+RxsQLFhQPy60R1iUphusw243jNBx98EDvXM+/58+fHZadp0zrlL81d3G88l6ZL0+a3/zd/8zfD7/3e79Xmz/KYN5cTL867iHVhHeutS9l+A3+ft956K247z6XKanE65P+uZVXOtA5p36b9VrafuF+s4rG++fEsI//+qbf84vtPkiS1ziAoqRQH1/nLfpehupYuJc7BPNNzuW2GR48exSCQAs/Ro0djm38O+AlV/H7R8ePHY9i5cOFCw0od896/f3/tB4e5bDdhiyvREQa4NDa/lZSf3xe/+MVw7969WDFivXicd/bs2VhRSuvU6Ad3P//5z8crrDHvc+fOxWoU1T62ndfz48Nc8jxtb36/MY5p0w8Fs65c+jy//T/96U/DD3/4w9r8v/rVr8bXEqZ4DZcQb4TfueIy6EzL/mD+hKp6+y1hvdlXrFv6kefidASv9HdlOi7Zng+aSL/HlS4pzy2PGZ/fT6xH+j2sVjVafv79J0mSescgKKlUqz84yw8FEyDyqIS99957MTClg/QUjDZt2tTwN6LKEIQIAyksph8nbmbs2LHxt6nKUCkkNIF1ohr3i1/8Ij5uhrDH7zURmMDvYKXfmiruN/bBrVu34i1aXXf0Zjv5YWGkdUKz/UYA5jn20dSpU+N+QJqOMEnFjZDJ35RtYP5lf28CWfqNLm7Ta7jEebrMOfuk+HtfjbSyfNa1uD6SJKk5g6CkUgQaAluSb56Xb7aXEDo4YOdgv9iEjyBE2GA8gZAKFvNvFYGA0JKW36h6lzdmzJi6QZBA0izkNpN+dJj5UGEkkBT3G/L7Lv/Dw820GgTrbWez/dbq/HldmgdNccuCFwGN0MnfllCdgikV0dQsOO2n3mpl+ZJenvznhoPDQA+8/zQwDIKSShEsqGwlVHVo3sdQ74dsaarJ81T7qOSkJnwLFiyI49Lrnz59WquQtSJdECTNg+aVL4omiqkqSXh78OBBvJ/H+Pv372ePeho9enSsdqZtYmD7i/uNfUD1kHkxDc0xB8rL2m+sc347y/7+BHwC8P/4H/8jvPbaa7FZKEGU36vatm1bfB3rwXuhmWLQa2X5kl4emm/n/+ccHAZy6E33Ab0Yg6CkUgSaVppwctBOZal4gQ/CEPMgIOT7hTEdzQj7eoEPXke/txdFlTI1W6UpI2cgv/SlL9Ue4/Tp07GfYRHNKenPl/rRpaoXoa/RfiMY0X/vVejLfqM5JlXe1OeQefC3y1d7k7RP/uRP/iT2veS1RbwH6lUEP/zww3Dt2rVas1u0svz0/pMkSb1jEJRUigP7Zhfi4MCc5oCEPS4Kwn2addAEkDBA1Y/5cFEULqbCc1zsg8epbxqVuGZXDaUvH2GS+TLt22+/HZdFOCAE0HSQcJCf39/8zd9kry5HZerAgQNxnZgX1TOCB6GDIMj4Tz/9NPadA8sm3KarhqaL0DAd20/Vi+axxf1G/0GaobJu48aNi/shBcX8+lIlTfP/6KOP4mtfVKP91iqqnGwP82B9CcyM4++Vrgya0DyUC+ukZqHsTyqCqWkn+5V1Klb82G+8lv3Ieuabz9ZbPvLvP0mS1Dsd3dRgJVUWB+j1PgY4yN+xY0c4fPhwaYUnVWbSgbmeabbf2sV3v/vdeJGc3jTzfZkG4v3X6P9DkqShzIqgpLo4wK/3o92EnZf1o+nMK11QpDhQAepNBWswaLTfeottZx+U7Zvi7/0NJNaLiil9AV+Fl/n+kySpiqwIShVHoPBjQCrn/4ckqV1ZEZQkSZKkijEISpIkSVLFGAQlSZIkqWIMgpIkSZJUMQZBSZIkSaoYrxoqVRw/eN7Z2Zk9kpTHT3ecOXMmeyRJUvswCErSIHHnzp3w9a9/PXzwwQdh/Pjx2VhJkqSXz6ahkjRI/NN/+k/DX//1X8dbSZKk/mQQlKRBgGrg2bNnw9tvvx1veSxJktRfbBoqSYMAfTUJf//rf/2v8Ou//uuxaah90yRJUn+xIihJr1iqBu7evTs+5taqoCRJ6k9WBCXpFaMa+Itf/CL8/Oc/z8YEq4KSJKlfWRGUpFcoVQP/zb/5N9mYZ6wKSpKk/mRFUJJeobJqYGJVUJIk9RcrgpL0itSrBiZWBSVJUn+xIihJr0ijamBiVVCSJPUHK4KS9Ao0qwYmVgUlSVJ/sCIoSa/AH/3RH4X/9J/+U/gH/+AfZGOe+X//7/+Fv//3/3726BnG/eEf/mH43ve+l42RJEl6MQZBSXpF/uqv/iq795nf/u3fDn/5l3+ZPfrMb/3Wb2X3JEmSXpxBUJIGkY6OjuDHsiRJ6m/2EZQkSZKkijEISpIkSVLFGAQlSZIkqWIMgpIkSZJUMQZBSZIkSaoYg6AkSZIkVYxBUJIkSZIqxiAoSZIkSRVjEJQkSZKkijEISpIkSVLFGAQlSZIkqWIMgpIkSZJUMQZBSZIkSaqYju5fye5LqqBFixaFzs7O7JFetVGjRoWHDx9mjyRJ6n8LFy4MZ86cyR6pKgyCUsV1dHQEPwYkSaoujwWqyaahkiRJklQxBkFJkiRJqhiDoCRJkiRVjEFQkiRJkirGIChJkiRJFWMQlCRJkqSKMQhKkiRJUsUYBCVJkiSpYgyCkiRJklQxBkFJkiRJqhiDoCRJkiRVjEFQkiRJkirGIChJkiRJFWMQlCRJkqSKMQhKkiRJUsUYBCVJkiSpYgyCkiRJklQxBkFJkiRJqhiDoCRJkiRVjEFQkiRJkirGIChJkiRJFWMQlCRJkqSKMQhKkiRJUsUYBCVJkiSpYgyCkiRJklQxBkFJkiRJqpiO7l/J7g85ixYtCp2dndkjSZJejYULF4YzZ85kj6Rq8DhMGnx68300pINgR0dHGMKrL0lqE34fqYp830uDT2/+L20aKkmSJEkVYxCUJEmSpIoxCEqSJElSxRgEJUmSJKliDIKSJEmSVDEGQUmSJEmqGIOgJEmSJFWMQVAagtauXRt/JyYNJ0+ezJ559tyuXbuyR625c+dOmDRpUo/59FZflitJUpWl79/0fc59xqXnZs6cGS5duhQft4rv8vx8eqtsufWOO548eRJ/wPxFjh/AslhmX9dZfWMQlIYYPoxv3rwZHj9+HH8w9OLFi2HVqlUv/CEsSZIGDqFn7ty5Yf369fH7nIH7jBtMgcjjjvZlEJSGEM688WG8ZMmSMHz48Dhu1qxZYeXKleHYsWOxInfo0KGwdevWeJ8Pac7U8Towjg90pLN4nNlbvXp1HJdwZm7YsGHxufxZRebHGTsGnmMapi0uV5IkNXb79u0YrBYvXpyNCWHNmjXx9ic/+Un8br5y5UqYP39++OCDD3pU3opVu/z3NscDebyG8QzpmCAdA+QrfdxnfHG5jY47kp/+9Ke15eePAxodT0ycODE+91u/9Vvhm9/8ZlzmYAvB7c4gKA0hfAjzYUzgSoEOBw8ejMOWLVvil8jOnTvj/UY2bNgQbznDt3nz5nDr1q34mA/gFStWhKNHj8YvKL4o+FJIYZIP6h07dsTXzZkzJ+zZs6dXy5UkSSFMmzYtTJkyJcyePbsW8MaPHx+D1+///u+HI0eOhBkzZoRz586Fr371q/H5Mul7e9u2bfF7O48gxvc9VTy+t5G+/5EqfSdOnIjB7tq1az2W+/Wvf73hcUdCcL17926cz/bt2+Nyi+tVPJ64d+9eXMZf/dVfhXfffTcu88KFC3EfaGAYBKUhhqDFWcTOzs4eZ/F6gw9hPvwJgITLRYsWhQULFsTn+LIAX0zYtGlTePjwYe0LhDN4PJdCqSRJ6j2+R/kuJzwtW7as9p2eQmGrOCYYPXp0rZrI9zaPcfr06Rg2CZ0sj+99vv+fPn0an0+VPr7Xp06dGscVtXLcUTafsvW6ceNGDJv44he/GCZMmBDv69UwCEpDUDpjyBk2Ahr3e9Mkk9d0dXVlj55HdZAPZz7s+VC/fv16/EDH5MmTw4gRI+J9SZL0YpYuXRq/zxk4GUvFLjX5bAXfzw8ePMgePe/s2bPxe5vvdAIn3//p5O706dPjbTPNjjvK5lNcL44rxowZkz3yeGIwMAhKQwjNLGhakW8/nypzV69ezcbUl6bhg5cP4HqoDvJBn76YOHNInwBJkvRyUPkrVtZSc9F08rUenr9//368T8BKFcAyVOTS9zkDIe5LX/pS9mxjL3LcUVyv/DprcDAISkMIZ+TobE1b/YQP5/3799c9q/fhhx/GZhhMR7MOpA/x3bt3x2aiZ86ciWcMQQWQs4WMA2f8XuQy1JIk6Xl83/K9nG8Kyncv39v1mkymC7TQ5JM+diA8jho1Kl60DfTdT5U4LkTDPFOFkeBJsEtNQ5vpy3FHwjawHvn1Ss1UNTgYBKUhJnXOTu30+aDlctPpIi18MKerd9LchCt78WXDlbhoEpKkzuJUBwmEv/u7vxsf86F//PjxeGlo5k+nbx4zvpH8ciVJUmN8r3JxlI0bN9a+0/nu5QIqtMLh+5mAx9U7OaHLdzVBkOk+/fTTWl88Tu7yHN/XPPeFL3yh1uqH+ezbty8eB/AcwZOLwXC1znryyyVANjvuqCcdT6T1SstmfYtSaPSqoQOro5sa8RDFm2oIr74kqU34faQq8n0vDT69+b+0IihJkiRJFWMQlCRJkqSKMQhKkiRJUsUYBCVJkiSpYgyCkiRJklQxBkFJkiRJqhiDoCRJkiRVzJD+HUF+LPOTTz7JHkmS9Gq89tproaurK3skVYPHYdLg05vvI39QXpKkF+T3karI9700+PiD8pIkSZKkugyCkiRJklQxBkFJkiRJqhiDoCRJkiRVjEFQkiRJkirGIChJkiRJFWMQlCRJkqSKadsguHbt2vg7Gl//+tfjcPLkyeyZ5u7cuRNmzpwZLl26lI2RJElSKziOmjRpUjwOyw8LFy4MT548icdou3btyqZ+huO0/LTF5yW9fG0ZBPmQefToUbh48WL44IMP4rB06dLsWUmSJPW3EydOxB+2TkNnZ2cYPnx49uxnCH0bN24Mt2/fjtM9fvw4nDp1KgZGSf2n7YIgIfDNN98M77//fpg9e3b4wQ9+EM9AcaaJCt/EiRPjwJkqzlilyiED93n96tWrw5UrV8L8+fMbVgV5jsoh80/zyFce+WBL44cNGxanZ/5M/+1vfzuO4zmmS+uR1gtp2jSP3lQ1JUmSBjuOeY4cORKOHz8exo8fH8cRFhnHsZits6T+03ZBkA+PH/3oR2HBggXxTNSSJUuyZ565d+9e2LdvX7h582asGHLLmScGqojXrl2LHz4zZswI586dC7NmzcpeWe769etxGZzBWrNmTdi9e3cMcIS2/fv3185urVy5MuzZsyd7VQg/+clPwt27d+M6bt26NUyfPj2uw+TJk8OhQ4fiNBs2bIjBkNcz3apVq/xAlCRJbYNjsVGjRoVp06ZlY54ZMWJEHH/69OlsjKSXrXIXixk7dmyYMGFC9ugzBMj33nuvafArYn6LFy+O9wl7CU1RCZnp7BZBL4/wyDJZF0InIZLHBD9whowmFGmeixYtCnPmzInBUpIkabBbtmxZrVVTvsVTK/LHRJL6R+WC4JgxY2pBkLBGIOOsEx9SfemYnJ9fXrFZJ1W/vGIwrCd9iLKOZ8+eDVevXs2ekSRJGrzyfQTzJ8clDQ6VC4JFW7ZsiR9QqWPyy+qHR/NTMF/mv3Pnzvi4N0aPHh2bTKQPUQbWV5IkqR1wPYeHDx/Grjl5VA/pI5haXUl6+SodBNNFWhLaopdV914UH2b0F+wNzprRZDT1K6RvIBeX8YIxkiSpXXC8w0X6VqxYUWs6mi7cx3FQb7vsSGpdpYMgF2OhqUJqejlv3rz4gZM6KDe7amgj9Pnr6uqK85o7d254++2347KePn2aTdFcuqgN68cZs23btvkzGJIkqa3Q2mnv3r3xZHw6JqPrzsGDB7MpJPWHjm7aGw5RfFgM4dWXJLUJv49URb7vpcGnN/+Xle8j2Ejxgi/5If0uoCRJkiQNNVYEJUl6QX4fqYp830uDT2/+L60ISpIkSVLFGAQlSZIkqWIMgpIkSZJUMQZBSZIkSaoYg6AkSZIkVYxBUJIkSZIqxiAoSZIkSRVjEJQkSZKkijEISpIkSVLFGAQlSZIkqWIMgpIkSZJUMQZBSZIkSaoYg6AkSZIkVYxBUJIkSZIqxiAoSZKkQWvt2rVh165d2aPee9HXS+3KIChJkiRJFdO2QZCzPx0dHXHgPi5duhRmzpwZ7ty5Ex+fPHkyLFy4MDx58iTenzhxYhg2bFgc94Mf/CBOy8A8GM/rwesnTZpUd/5vvfVW7TXMN02bpgPT8jzjeT6tkyRJ0lCXP1bKH+fUO/7heKnsuItK3qFDh8LWrVtrVT1umSY/XZI//mOeZa+X9ExbBkH+8W/evBkeP34ch0ePHvX4kKjn3r174dy5c6GzszN87nOfC1euXAk7duyI85gzZ07Ys2dPDI2rV68O69evD93d3eHixYvhzJkztflfv349fPnLX47PrVy5MqxatSocP368x3R86K1YsSIcPXo0TkfwZJ7MW5IkaShLx0p79+6NxzkcMxHE0vHPtm3bSo9/yo67tmzZEtasWRN27twZ73OMt3///nD79u3asRbTIQU9xnPc9c4778TX5l8v6TNt3zR0+PDh4b333guzZs3KxtT3xS9+MUyYMCF7FGKFcPbs2XEeS5YsieO4T1BMHyZMP2bMmHgfY8eODYsXL473p0+fHj+gWHZ+Oj6cwLyxadOm8PDhw/jBJ0mSNJRdu3YtHtek4xyOmQ4ePBjD2+jRo2MwA8c/N27ciNOj7LiraOnSpfFk//jx4+NjjrVAmDx16lQ87gLHXpcvX65NJ+l5bRkE+ZDgA2TEiBGxaUCrTQEmT54cX5MUHyecjUrNDgh4VAETwl4+TNZz69atOB3z4EOPefABKUmSNJRxPPPgwYPs0WeK44sn0+sdd+UR+KgkpuMwKo3gZHpXV1e8L6k1bVsR5OwTTQP4YOAMEeGt6OrVq9m91tGsYePGjeHEiRNx/nyoTZ06NXu2dQsWLIjrxjwYnj592lLVUpIkaTAj4FH5KyqO5xjq/v372aPW7Nu3L96mYyiafIIASZCU1Lq2DIJUAPMXZhk1alStSkfljaaZqQnBi6IDcr4i2AoqgJy1os8gWF8vGCNJktoBx1xU/lJXGI5zqOKNHDkyjufYCfTtmzJlSpg2bVp83FscN9FfEDQn5Vjq2LFj8THXZKCpaSvXiJCqqi2D4IYNG2L7cZoMcIZo3rx5sdrGQAflZcuWhXHjxoU33ngje0XraGtOp2fmwfw5I0WH5t4062QeXECGC8kwj+3bt8fHtmOXJElDXfE4h7B25MiR8Prrr8fxHPcwnmsuMJ4Q1wj9ANNVP+lfyMl0ju/mzp0b3n777XjMxwl+qoXp+I+T7jzm2C//ekmf6eimrj5E8Y8+hFdfktQm/D5SFfm+lwaf3vxftv1VQyVJkiRJPRkEJUmSJKliDIKSJEmSVDEGQUmSJEmqGIOgJEmSJFWMQVCSJEmSKsYgKEmSJEkVYxCUJEmSpIrxB+UlSXpBfh+pSj799NPwd3/3d2HatGnhf//v/x3f/40GlI0vG/pjWqlKeM+3+n1kEJQk6QX5faQq+eu//uuwePHiGAKnTp0a3/vNBpSNLxtanbaV6VIQ5LaVodVpW52OoT+mbXU6hlc97cueLg2tTt/qdAz9MW2r0zG8jGlXrlwZ/uf//J/hq1/9apymEYOgJEkvyO8jVdFQeN+zfs2GVqdj6I9pW52OodVpW52OoT+mbXU6hv6YttXpGFqdttXpGPpj2lan++EPfxg++uijMHPmzPiaRgyCkiS9IL+PVEW+76XBpzf/l14sRpIkSZIqxiAoSZIkSRVjEJQkSZKkijEISpIkSVLFtGUQvHTpUrxSzp07d7IxvbN27dqwa9eu7JEkSZJ6i2OpZsdTHLMtX748PHnypPa42TEc0y5cuDCcPHkyTsf0vC4/vhGeZ7q7d++2NH0zHDemebAew4YNixfsYGD+vdm2MuzD/Hx6q9Fy6x3zsj2TJk1qeV3zf4fe6O1yivq63KTZ6/N/23ZkRVCSJEkvFQfW58+fDxs2bMjGlJs1a1aYN29e2LdvX+3x5cuXw/jx4+PjMsOHDw+dnZ1h6dKl2Zhn6o2vh8DWm+nLpJDAPNjm+fPnh6NHj8arNjIQct58880+h7j+dvDgwbBly5bskYp27twZdu/e3eegOthVIghypiOdmeGfPqV+/nnT+HQ2gmkPHToUtm7d2vAsVjrrxJmCNA/uJ/l5M6QPCm55HWe/GM9yGZfOHuWXmZ/Hi5wJkiRJGkh79uwJ69ati+Es4TiL45niQfWaNWvCqVOn4niO0VL1iuMg7jNwLJSO4dIx2A9+8IOwevXqcOXKlRjAPvjggzg+f8yVjqMY0vjk6dOntenzx4ppSMdkLDMdp+WrV6zHgQMHwqZNm+Lj27dvhy9+8Yth9uzZ8TF47saNG+Ev//Ivw4oVK+K6zp07N/z4xz+ubSdYB9YlHeuldWe5BOokbXtax7RNab8Vn2P++eWm5SX5imB+O48dOxbHlSke+7JO+b8D88nPN61zfl3rLSdtN0N+fzA/jp3T63iOim5xuY20ut4zZsyI07D+nJBYsmRJzAbtqO2DIG+o/fv3x39Ozszwa/t8OPGP8M4774SLFy/G8evXr49/ZM6K8IHEGYBWzpDcvHkzPH78OJw4cSK+mXkTMXAGLM07nU1Ib+azZ8/GD0deN3ny5LBx48bw8ccfx3mwrqxbfh5Mh2Zn1SRJkl41jmM4PsoHokY42CZgccxTxEH6jh074rHQnDlz4jFc8rnPfS4cOXIkHrifO3cufPWrX82eeRY2Gh2LFXHMx3QMHDMyz8WLF9eCVKryEUAID8zn2rVr8bXTpk2Lt2l7X3/99bh8UOG8detW+Cf/5J+E48ePx/leuHAhBsZ6eO2qVavicSFh5+HDh9kzz44F2VesC88zXVrW9evXY2jhOY5l2d4RI0b0WG69Smvazm3btsXX18NxdTr2ZXj06FHcD/m/A9tcT6PlNDv25UfSOV7m+Q8//DD87Gc/a3m5vVnv0aNHx2lSDuB9QBiv994Zyto+CFKq5w+f3vjTp0+Pt0X8sVsJfkX8w3G2i3/+qVOnxnHpnz69oYrLnDhxYpye1/HPTAhl/SZMmBDffDh9+nSYMmVK/HBhus2bN8ftaMc3oSRJah8EqVGjRsUQglTl4TiHk+HcpopLwrHS1atXs0efyR8zcczVqmbHYvUQVKicET55bQqnKeRR4SOYERTYzpEjR9aqnhzLcaxGyGF6tpEKVgpqrWK+hN5FixbVjgHxi1/8IjZlpagBnmc6psfYsWNjaEGaplXMg2NQAiTYznRMWg/r9t5779X2cSsaLafZsS8hnH3M82x3XzVbb47N098UvF/T37zdtH0Q5M3DG4d/RgaafII3EuV8SsGMz5efe6PeB0u+/Lxs2bJs7DNUAdOHYyN8WDJdmkdXV1dbvgklSVL74GA/X8XipDzVH8YvWLAg3vK4lRPwrR4zlWl0LFaG40CqfZygz/cbJFCm8ErAo/LGNpQFV+Sri1QSqYARMFtVb74J28K6sF84VkzTjxkzJq5nX7A9Dx48yB7Vx34hkKfj03yYb0Wz5TQ69m01zJfpzXq/yHKGmrYPgqnzMW8i/iFpGpBwJoD24YznzfGyml5y5oszNumDjtJ9X3C2JH2QMOQrm5IkSYMRYYSK4KvUl2MxjgM5HiwGVMJrOo5k4NiRY8hiYCBcFAMGwZGKF+vRSD78NQoizCs1d01DX1q0FfE3a1YBTFLQZZ/Qt5N93QjTEejQbDn9eezb2/WugkpcLCbhbAx98ECZPt9JF/1xBoCzS7TR7i1K+2fOnKk1J+CsVl+rlpIkSQOFg/2ypnQc0BPOyg7sCUL9VYlp5ViM4ywUQxVBjhDDMRkIeumCMWwnfc3SsRnHbhQg8k1Buf4EFTCmLaKySKjj9QSTJL/M/Lp/6Utfiv3ZUj9JlkPT05cRaGhuSXhPF0VhGWWVO7Y/7SvwmrJtA9vE+rONVFXRaDn9eezbm/UuIsQzfV8r04NZ2wdBzizwz8Qfjzbfb7/9djy7wBuR8j9vAkrEvFlTRZAPomZXDW2ENts0ZWDe48aNix15e9u2mDNNfJikNuZ8cNKhNd9mWZIkabAh6NW7+EsZQhXHZhzz9BbHdxyk09WHi4kkvTkW++UvfxmXTzjhmCsNBAe2hYut8HrGbd++PT5mPMeSSBeN4djt3XffrXU7YqAAkS7SwroQejge5T59CWn+yPq98cYbcR5g2r1798bn2D6eYxvBsSHryrzZX8wj34y1TH65/DQHhZB8WAXHlwROto95f+ELX4j7D0ybiiccK6fls2789Afbnf87MD0t8NLxN12xqKqi0XL6cuxbXG49ra53GfouMn07HoN3dFMjHaL4Yw7h1ZcktQm/j1RFjd73HFRzwZXDhw83PYBOJ95fRhPHgUY1jqvG83t8Q8V3v/vdeLEVglCruNJ+urhhlRB+KRwRSIfKtvfm+6hSTUN7i39udmbZkC8vS5Ik6TOEjPwPxddDYGzlh+cHq1SNGyr9zWhm+emnn9aqma1I3agGexDi2LzsmJ2hr38fWghy9dJ2DcBWBCVJekF+H6mKfN9Lg09v/i+tCEqSJElSxRgEJUmSJKliDIKSJEmSVDEGQUmSJEmqGIOgJEmSJFWMQVCSJEmSKsYgKEmSJEkVYxCUJEmSpIoxCEqSJElSxRgEJUmSJKliDIKSJEmSVDEGQUmSJEmqGIOgJEmSJFWMQVCSJEmSKsYg2EtPnjwJCxcuDCdPngyXLl0KM2fODHfu3MmelSRJEnbt2hWHRjiWWr58eTy+AsdUkyZNCh0dHT0Gjr2YZu3atc/Nk2Oy/LTNlinpGYNgLw0fPjx0dnaGpUuXZmMkSZKUR8A7f/582LBhQzam3KxZs8K8efPCvn37sjHPnDhxInR3d9cGjr04Bisi9G3cuDHcvn07Tvf48eNw6tSpGBglNda2QZAPoGHDhsUzQ5xZSlU7zhpxVomzT+k5xqVp82eRuJ/OLvE888xXBCVJkvS8PXv2hHXr1vUIbxyLcQxVbEm1Zs2aGN5628KK6Y8cORKOHz8exo8fH8exPMZduXIlHrdJqq8tgyAfDCtWrAhHjx6NZ4f40Fm9enWt2cHZs2fjhxNnjSZPnhzPJH388cfx7NP+/fvj6wl63E9nmFauXBk/1CRJklQfx1E3b94Ms2fPzsY0RojjxPzFixezMa1h+lGjRoVp06ZlY54ZMWJEHH/69OlsjKQybRkE0wdJ+gDatGlTePjwYQx+mDhxYnyOs0Z88Kxfvz5+CE2YMCGMHj06TkPTTz7E0hmm6dOnx1tJkiTVx0l0ghiBDKkPH8dZnIznttgKi+Osq1evZo9CWLZsWa1VVr5lVyvS8Z2kxtq2aeitW7dqHzSEvuvXr8cPJlAFTB9O9aQmoOlDaOvWrdkzkiRJqofjLU7AJ5xcp3UV4xcsWFBrbbVly5Zsiufl+wjmT8xLennaNgjyQUMFMH2IPH36NHZIblXqtJzmsXPnzvhYkiRJ9XEinopgf+NEP4Hz2rVr2ZhnqB7SR3Dx4sXZGEll2jII8sHQ1dUVzpw5Ex/T9KC3zQryeB39BSVJktQYQTDfJSehqsfVP8uqezQL7W03HObDNSC4LkQ6xqNFF+NmzJjRqwKAVEVtGQT5YOAKUqtWrYrNOrdv397jilKt4ApWhEmakM6dOze8/fbbsWkClUVJkiSV43irNxd/IcT15uIyeTQv3bt3b607EMdtS5YsCQcPHsymkFRPRzftHoco/uGH8OpLktqE30eqokbve366YceOHeHw4cOlv/+Xly4a06jPoKTW9Ob7qG37CEqSJOnVqPdD8UWt/vC8pJfPiqAkSS/I7yNVke97afCxIihJkiRJqssgKEmSJEkVYxCUJEmSpIoxCEqSJElSxRgEJUmSJKliDIKSJEmSVDEGQUmSJEmqGIOgJEmSJFWMQVCSJEmSKsYgKEmSJEkVYxCUJEmSpIoxCEqSJElSxRgEJUmSJKliDIKSJEmSVDGVC4InT54MCxcuDE+ePMnGSJIk6WXbtWtXHIouXboUli9f3vRYjOlmzpwZ7ty5k43pm7Vr15aux4tivVg/1hMvspy0T+7evRuPUzlebYR9x3QdHR1xufUwn0bPq9qsCEqSJOmlIticP38+bNiwIRvzmVmzZoV58+aFffv2ZWOqjVC3Y8eO8M4774Rx48aFzs7OsHTp0uzZco8fP463t2/fDgcPHoz3y6T5NAuWqqa2DILpDNJbb70Vz5QMGzasdrYm+da3vhWfmzRpUu1MU/7sCkP6p0nzK3sO3E/jrTZKkqSq27NnT1i3bl0YPnx4NqanNWvWhFOnTtWOwahapWOpYgXrO9/5ThxfPJ4rO/5Kx3IzZsyI4//wD/8wHDp0KGzdurVptS4/v2bHh4xbvXp1uHLlSpg/f37YtGnTc8tpZf2Y5syZM2HkyJExIKfnGV/v+JP1mjt3bjh79mx4/fXX43QM7B+mya87WLcDBw7EeUt5bVsRvH79evjbv/3b0N3dHbZt2xY2b95c+wfgH4cPJ86mTJ48Of7TIp21YvyJEyfCqlWrah84zG/JkiVxfnx47d69O86P53ndxYsXa2dnys5+SZIkVQEh5ObNm2H27NnZmOeNHz8+BhaOnwg3TM9xFMOjR496HH99+ctfjsdfK1eurB3P8TzHaRyvlR1/EaB4zfe///143LZz586wZcuW7Nnnsc5U5FgfXrd+/foY7MB8WVfGp+PDa9euhSNHjsRAd+7cuRh888tpdnyY1o+K3bFjx+K2lSk7/hwxYkS4cOFCbdkTJkwIK1asiMe7TEdwJKSm495p06bFW9ZZymvbIDh27Nh4BgT84zx8+LD2DzBx4sT44cRZKv65wD8LH0J8wDB+0aJFYc6cOeH06dPxeea3ePHieD//z8rzU6ZMif9kvI7XM5/0zydJklQlNFccNWpUDCyNTJ8+PVy9ejV79AzHUu+9916sjqHe8RfL4DiN47V0/EWTyl/84hfxeeb9IghzDARE5puWnY4PWX4j9Y4Pnz59Gp9P68fxIsGXMFem3vbnsS6jR4+Ox7vg+PfGjRu1416WT8Wx2Tqreto2CI4ZM6buPxVVwOKHE2drurq6skfP/mk4+5M0mh8VRuZHOX7ZsmVxPunsjyRJUpUQODgBnzRq9gmqYpyYT8dS+Sac9Y6/igGSaQhDSW+DIBVKmk/SzJN1SE05E47vGM86ctxXXH6ZRseHaf14/Mknn8T7ZRodfybs7wcPHmSPnu0LXic107ZB8P79+7UzH9zyuBH+UQmISaoQtoIzMJTi08Dr+ECRJEmqGoIIFcGEi5mkY6R6Fzah+sbzBCP6DtJctJFi0CuGob6gCknFjvUgmKamnATM1GQ0DY2amSZlx4df+tKXsmef4fjztddeyx71TTEEt3LcK6Ftg+C9e/dqzTrz5fl6UgUw9f2j4+6HH35YK8fXw/NMm9qyc6areBZJkiSpKggmVASbtY6iqkagowKYrxQSIptVwXie4zSOwTjm4viN469i0GoVx3H028tfZIV148Q+ffHoAwim46IszYJqvePD1DQ0eRnNNtkXhODUp5F1zR/3sn8aNT9VdbVtEJw6dWo8o0Q5fv/+/bFDL/9sjaTLGHN2hhL+0aNHa23U6+F5XkefQ5ZFO/JWliVJktSO8heCqSd/QRkqb9xPTS/5aYlWjr84TuN4jdeg3s9REOiaXTWU+XGBFcIS68ExZKoIMt+0fqwvF2WhOSvLJbTSnJTAl19OveNDQmQRff+4YExfsb+PHz8etm/fXnosmvoKNiqIqJo6uqlVD1G82ctWn39GrgrKP7FNNCVJ/a3e95HUzhq97zkW47fxDh8+XHpyPIWyVppYtjsqdvysGVctbRaA+4JqJGGz2W8Tqj305vuobSuCkiRJejUINPV+NJ6QWO/H5vsTzTk5SC4byi5iM1AIyoRAgvPL7lqUmrAaAlWmLSuCkiQNJL+PVEW+76XBpzf/l1YEJUmSJKliDIKSJEmSVDEGQUmSJEmqGIOgJEmSJFWMQVCSJEmSKsYgKEmSJEkVYxCUJEmSpIoxCEqSJElSxRgEJUmSJKliDIKSJEmSVDEGQUmSJEmqGIOgJEmSJFWMQVCSJEmSKsYgKEmSJEkV05ZB8M6dO2HmzJnh0qVL2RhJkiRJUmJFUJIkSZIqpu2C4JMnT8Lq1avDlStXwvz582NVkArhpEmTQkdHR1i4cKHVQkmSJEmV1nZBcPjw4eHIkSNhxowZ4dy5c2HWrFlh69atMQB2d3eHJUuWhOvXr2dTS5IkSVL1tH3TUKqBVAc3bdoUH69ZsyZMnTo13pckSZKkKmr7IHj79u1w//797JEkSZIkqe2D4IQJE8KYMWOyR5IkSZKktg+C48ePj/0F9+zZEx8fOnTIPoKSJEmSKq0tg+CIESPCqFGjalcN3blzZ+js7IxXDf3000/tIyhJkiSp0jq6uZTmEEWw6+3qnzx5MmzcuDFcuHAhVgslSXpRffk+koY63/fS4NOb/8u2bxrK7wry0xHsFIZVq1aF48ePGwIlSZIkVVblKoKSJL1sfh+pinzfS4NPb/4v274iKEmSJEnqySAoSZIkSRVjEJQkSZKkijEISpIkSVLFGAQlSZIkqWK8aqgkSS/I7yNV0aJFi0JnZ2f2SNJgwM/mnTlzJnvUmEFQkqQX5PeRJGmosWmoJEmSJFWMQVCSJEmSKsYgKEmSJEkVYxCUJEmSpIoxCEqSJElSxRgEJUmSJKliDIKSJEmSVDGVCIInT54MkyZNCnfu3MnGlFu7dm3YtWtX9ujlevLkSfyBR35riuXUw7oyHdMX1Vs/tmvmzJnh0qVL8XF/bockSZKkoc+K4AB5/PhxvL19+3Y4ePBgvN9bvG7Lli3ZI0mSJEnqm7YNglTHhg0bFitwx44dy8Y+Q7WM8QxMw7SMO3ToUNi6dWutmkZ1Lk1Xr0pXlF9uqkIyzJ07N5w9eza8/vrrtcpdI9/61rd6zAOp0sfrJ06cWBt+7/d+L1y5ciXMnz+/Nu9PP/00vpZ5NKpASpIkSaqetgyCBKcVK1aEbdu2he7u7mzsM4S7/fv3x8ocz61cuTLs2bMnVtrWrFkTdu7cGe8TqDZs2BAuXrxYq+bxuJHicgmPq1evDiNGjAgXLlwIM2bMCOfOnQuzZs3KXlGOwDhv3rzaPAinRffu3Qv79u0Lt27dCj/84Q+fm/eJEyfiMll/gjDbLUmSJEloyyBIyBs9enQMdti0aVN8jKVLl4abN2+G8ePHx8fTp0+Pt0WnT58OU6ZMCdOmTQvDhw8Pmzdvjq9rVBUsW+6NGzfCtWvX4uNWUeXLz4NqX6oKJmPHjg0TJkzIHj2PAMk2sv5z5szJxkqSJElSGwfBBw8eZI96yl+0haGs2pZQmaOax3TLli0LXV1dtepgmeJyCWpjxozJHrVu8uTJcbmNMN9GQbBewJUkSZKktgyCBKRUASyiOSUIdDS9pCloPVTlmCYN+UpimeJyCYb379/PHrUuHzgbhVpJkiRJ6ou2DII0hxw1alS8+AvoA1gWpmhuSX/BMosXLw5nzpypXXyFC640u2AMQZDl5Jebmpf2Bv3+6NsH+velZp6SJEmS9DK0ZRCkT9/u3bvD9u3bY7POL3zhC7G5JajyUXGj6SVX8nz77bdrff9oTpmuGspFV6gezp49O86js7MzHDlyJM67HsLa8ePHa8tt5TVlFixYEA4cOBDnwbqlKmY9bAvBN3/VUEmSJEmqp6ObNo9DFEFpCK++JKlN+H0kSRpq2rIi2F+KF5rJD+n3CJthmvQ7g8WhWdNTSZIkSXoZrAhKkvSC/D6SJA01VgQlSZIkqWIMgpIkSZJUMQZBSZIkSaoYg6AkSZIkVYxBUJIkSZIqxiAoSZIkSRVjEJQkSZKkijEISpIkSVLFGAQlSZIkqWI6un8luz/kdHR0ZPckSXq1hvDXqSSpgoZ8EPSLV5L0qvl9JEkaamwaKkmSJEkVYxCUJEmSpIoxCEqSJElSxRgEJUmSJKliDIKSJEmSVDEGQUmSJEmqGIOgJEmSJFWMQVCSJEmSKsYgKEmSJEkVYxCUJEmSpIoxCEqSJElSxbR1ENy1a1ccGrl06VJYvnx5ePLkSe3xzJkzw507d+LjMky7cOHCcPLkyTgd0/O6/PhGeJ7p7t6929L0zaxduzbOIy2/o6MjvPnmm023o6iVbR8sXnRdeV+w3zQ48Ldo9r/aH172+yC/HfW2Kf3/p8+cJP3/DvR+yK9PK3+HVtezvz9PWG8+64YNGxaXVSata9lnbKP1Y9vS+2IofS5KktQbbRsE+fI+f/582LBhQzam3KxZs8K8efPCvn37ao8vX74cxo8fHx+XGT58eOjs7AxLly7NxjxTb3w9HMD0Zvoy6QCHeTx+/Djev337dvjRj37UdDskvVwHDx4MW7ZsyR6V43+V/3s+LwaDwbY+rbp69WrYuXNnePr0afzc7q1WPuslSWpnbRsE9+zZE9atW9fj4IYzupwdLp7ZXbNmTTh16lQcnz/7S8jiPkP+zHM6y/yDH/wgrF69Oly5ciXMnz8/fPDBBz3OPqcz1mkonpXmACZNzxno/LQM6Yw7y2TZjJs0aVJt/VmPAwcOhE2bNsVxc+fODWfPng2vv/56OHz4cI/tmDhxYpwHy0uVyPxymG7FihVxW5hPWkYZ5le2X8DrWMc07+JZ9bfeeqv2GuaTpk3Tod72NpLff/n1yc8rjWe5W7duDYcOHeqx3DI8T8U4zYP9xn4H80nLZOBxGs90vI7xbAPj0jzS3xX5eeTnnZfeb2m69Pq0nPQaxqft4XbGjBm16QfDdpTNL/+3/fTTT3v1fmB+9d6HYB6MZ8iva8Lri+8DpkvzYj3z65FXbzpueY6B+TL/4rLTfkj7KK3nG2+8ER4+fBjHlUnT5bcnvTe+/e1v9/i7pGnz+6ve/2Zxfeqpt55l82Vc8fMkrWuajuW2omy7uWXfMqTtaOSnP/1pj/0D3iu8d1g35pH+X/7wD/+w9PPhO9/5Tny++D6TJGmoassgyBf7zZs3w+zZs7MxjXFGmAOZixcvZmM+w4HMjh07YrVtzpw5MWAmn/vc58KRI0fiAcS5c+fCV7/61eyZZwcZVCOZZ3d3dzxzvXv37roHW1QRmI6Bih7zXLx4ce2A6ujRo/E5DqQIn8zn2rVr8bXTpk2L23DhwoXauvzGb/xGfC65d+9eHM+Z/+9///txe9OyCME4fvx4fD3zaXaWvGy/sE6s2/r16+O82fYzZ87UDpquX78evvzlL8fnVq5cGVatWhWXmZ+u0fbWwwHl/v3747akeaf12bx5c21e3DKeCgh/D04AUMFp5qOPPgoff/xxXM8PP/ywtq6N/r4Eck5EsH8mT54cNm7cGOdx4sSJuK5sZ34eqZpbVsGmWl38e/H6ZkaPHh3nmypUr3o7wPyowLMs/rYccCfMk/ce8zl27Fj8u6b3w7Zt22qvyb8f6v1/crDPZwDjmd/27dufCx7F9wHbwb5meraR/VWmlenY58yX+TeqELKe/E/yd+WkDv8jZZptz09+8pN4god9yD6dPn167W9GoGF/NfrfbKbeetabL9MVP094T6T3MevJ/3+z5eeXm99u9mlv/of/83/+z7X3Pn+7suWm/xc+H4vzLn528bnyf//v/43PSZI0VLVlEOSgYdSoUWHEiBHxMQcOnMmdMGFCPBDlNn9mGBw40dSoiEoagZLK4pIlS7KxzdHs6NatW7UmS8y/FRz4cgadg1tey4ELUqil+sfZeA5Y2M6RI0e21KTri1/8YtzuIg7QONBqFvyKyvYL95lXOvBleWPGjIn3MXbs2Bhuwf7ggIptzE/XaHvr4YCeg+S0DfX2NdO1ctBYRPhg3gRuwgaa/X3z+4eDXw6UmQfbygEnTp8+HaZMmRLny3QcXLIdKeSU6c3fi+Xm3xuDYTuYHwfY4G9LkEuhtmz9eI+znPxrbty4UTsJUvY+ZLmEZR4znm3jvVb2/53HdixatChOz3qwrWVana4VrFPap2k9i1rZnvQcfxfCF/uLx/zNwP1G/5vN1FvPVufL35jp0uvYf/yN+fs2UrZcThL0Vn4eLJu/YVHx/yUv/9lV9jeSJGkoatsgmG+6RADgTC7jFyxYEG953OhMfcIZ9RQoeyvfpGnZsmXZ2PryZ9dZ54QDdQ6wmA8HvZydZhuaHdjm5bcjbXdat2KlpBX19ksK3Qysc77CwQEi45qpt731sN8IEWm5qcrEQR0VW6pYjOdAL4WO3qgXLBv9fVt933BigunSPLq6up4LvX39exXX+1VvBxrNr2z9+Ls/ePAge/R80Gg0P94HabuoijX7f2n1/6k3/3eN0DScwNyqRttT72+b1+h/sxH+vxqtZ2/my3uD6fib8Z5ptC/LltvKdpZp5XWNpmn1s0uSpKGkLYMgX9hUBF8lDo44A55CJ02hmqHpFGf2iwGV8MpBNfNhSBdH6OtBEaiMpXD8zjvvtNxErBFCFqGLbU3znjp1avZs6+ptbz3pQj/pNTTrSqgCcDDJ+L179zZtZtqqvvx9y1C5SdvJwLqyzkWt/L36ElAGejvyAZFl5kNeGf6XU+URvOb+/fvZo8bS+zANzarBrf4/vcj/XR59zVLFrhW93Z68F/nfzFcWi3ozX/6OVPzz29DoZFzZcvsawtPrmoVaSZKqpG2DYFlzQg5MOegtO0DlQOFlHeAVcfBBv6tG0kUJigdGVMQ4eKbfDWjOmipbbOejR496HWxYVr5ZLKG5P852U7VoteqQNNreVjAdfdfSfS4GkQ9NzKte86++auXvW4amZvl+WvxdqGwW/56N/l709aOZJNvKe/tF9Pd2gGpvav5LE7/UHLQetpOwyHsJ9AFMzVDr4e/LCZXU15F9w989vw/L5Lcj/z4qanW6VtDMMN/XsqzZY1+3p5He/m+2sp6oN1/+xjRZTX04mQdBmBMRjfCZXFxuX5pm0rSWfcf/Ck2LUzNPSZKqrC2DIAcdHCilA85mOMjgLDEhpLdo4sSBOVcNzV80gn4oNFvjQHbcuHHxwgj1+rr98pe/jMvnICo1sWLggJpt4aILvJ5xXCyBx4xPB8Opv1SrqJhxcMX8WD/6dDG/dNDd7Kqh9TAPmrWm5l9sayv9gPIabS8Hgukqf3lUowiP/C1Y97fffjvuTx7T15K/K/OicpGqhRxgsr/Zx33Rm79vPVQ5qWam9SPI0ZSVA38O8tO61ft70XyYg2Jez3YXm3W2YiC3A4QBKppMx98oVXPrSe8H3gfFeTfCCRU+A3gPsG0EznSShfVJISr/PmA7qMqX7c/8djSaLo9505yT1xb3Q8LfkHVjHbkozh/90R9lz/Rcz0bb04q+/G/ml19vPRvNl2nznyf8rfmbMx37jgsA5ZvAl2Eb03JbfU0ZrnTK+5t5sB6NWhjgRT8fJEkaErqHsEar/6sQ2P27v/u73b86MMnG1PerA+04DEUnTpzo/lUQyh61v29/+9vdvzrIzB61L7aRbR3q8tvBe3XBggUt/U/2Jz4b/sN/+A/Zo3KsI+uaPhfq/T2K09XTl79nK+vZn1718oeaIf51KkmqoLasCIIzvvkfiq+HKlMrPzw/WKWz482aWPVGarbFmfviwNn5siZ/AyFVAqlCvCzst7LtZHiV1QCq2V/72teyR0PXYNwOmtOmq5Lm5d8LVN6owKWqW347Gk1XT1/2Q731HCgDsfyX8f/HdGWvZ3iZn4uSJLWbDtJgdn/I4Yt+CK++JKlN+H0kSRpq2rYiKEmSJEkqZxCUJEmSpIoxCEqSJElSxRgEJUmSJKliDIKSJEmSVDEGQUmSJEmqGIOgJEmSJFWMQVCSJEmSKsYgKEmSJEkVYxCUJEmSpIoxCEqSJElSxRgEJUmSJKliDIKSJEmSVDEGQUmSJEmqmLYOgrt27YpDI5cuXQrLly8PT548ycb0HvOYOXNmuHPnTjam/7Eslsmy+0Mr++7kyZNh4cKFL7Tv+uJV7O9m1q5dG/dXft3YP4yXJEmSBpu2DYIckJ8/fz5s2LAhG1Nu1qxZYd68eWHfvn3ZGLW67/SZgwcPhi1btmSPnlm6dGm8JRBKkiRJg0nbBsE9e/aEdevWheHDh2djnlXRqGAVK0lr1qwJp06dqo2nitPR0RGHfEWHgDRs2LA4ftKkSXF6hhUrVoQrV66EuXPnPjfvovw88tU0wkJaZhrPwP3i+jB+9erVcZnz58+P82S5rFN+uiT/XFpv1NvO/L5j3lS43nrrrTgd6864vG9961vPzRv5+afqYpof25Weywelsv2Qx/yL+zv/GpZZ9jrk931+XXk9r6EynJ5jXJo2XxnlflpWfl+w3LIK6qZNm8KBAwdK10eSJEl6VdoyCHKAf/PmzTB79uxsTGPjx4+PB/8XL16MAYDXPn78OA6PHj2KB/spgBw9ejR0d3fH4EAYGzFiRDh+/HiYMWNGuHDhQpxXPcyDgHXu3Lk4D5ZJJZL5r1q1Kpw4cSIuE/lqXFofnj927Fi4du1aOHLkSFwm85o2bVpcl/Xr18f5sh1nzpyJ802hce/evfE5ptm6dWvD7Szuu+vXr4e//du/ja/ftm1b2Lx5cy3YnD17Nm4T85g8eXKcNwhFnZ2d4fbt23F9tm/fHpcJ5rdkyZI4P0L47t274/xYPtvN9GX7Aezf/P7Gxo0ba/uOdS9T7+9XbzuY58cffxznu3///vh61p/7bBPzWLlyZQzNjfC3AX8zSZIkabBoyyDIgfqoUaNiSAMH8FRwJkyYEA/4uS1WeqZPnx6uXr2aPXqGith7770Xm48STpACEpWehw8f1gJLK5gH65XCQWpOyPrOmTMnLFq0KC6ToEWI+sUvfhGnIzQxnmVPnTo1jsvjOaZPTRPZvjFjxsT7BBDWM60307DcvPx2Fvcdxo4dG7cXBDfml4LNxIkT47yZB+uZsC8JnQQ35ktoIsSC+S1evDjeZ3xy+vTpMGXKlLh/0n4g2DWqprFPCW75fVem2d8vvx0E9LTu7MvRo0fHaWjqyfqksM97phnmN3LkyLhfJUmSpMGibYMgB/kJB/BUcBi/YMGCeMvjYp8uMC2BhiBUDIu3bt2qhUhCA5Wt3hzgF4NmUhyfDx9oJXCksJsCL+sG1u/Bgwfxfl697SzuOxAqmWcZQlg+NILgVqzM5beh0fwI6mmdli1bFrq6uhqG7Xr7tEyjv1/ZdhSxXVQS035O1U9JkiRpqGnLIMjBPlWtviIgEhQJIPQdTE0aCZGM4zmGp0+fxmpXq+oFuuL4euGtHpotpuaRKfCmyiH7Ih8q88q2s2zf3b9/vxaYuOVxI6mqltdqYKPimPYvQ74CV6aVkJy86N8vXVAozWPnzp3xsSRJkjTUtG0QzDf7SwgUNKEsCxYEFUIFlbH8hVMIRcyPChLVKfregekIO4SwVjGfGzdu1JpVshwGxn/44Ydx3lSd6DNH5elLX/pSnK63Dh06VKsIMm9CZWoayXoz7x07dpRuJ0Nx3927dy8220S++WYj7MvUt46+fzQLzTcDLUNz0dS3Eawf69qoaWj+75L2XZmX8ffL43VsXzOsE/0v2a+SJEnSYNGWQZCgx0F+Cj/NcFBP5YmwwMVJuE/TP5oK8tMSVI2YJxcp4aIuPMfFT3jM+BS2ml01lPlQVWI5zIPl8JjxXMSEppCpeWKzn7NgOsIbVw2lSkefNl7PfAlx9DlkfHG9CS9caObP/uzP6m5ncd9RXaRimH89Vb9GqDYS4tg3bC8XmUk/p1BPcf8Q2tOy8gE9v7/BhXDY9nHjxoU33ngjjgOBMv2mX6O/X6uoVhIm2V8s++233477sFFQTaG/WXCWJEmSBlJHN23chigO6OutPiGAqtfhw4ebhhZCBsr6DFZRft8RZLiaJkGwN6HpZUsVONarkRQW0wVx3nnnndqFX14F1odKaLMQLGloa/R9JEnSYNSWFUFQXWrlh+IJPS/rx9OZV/rtueLQrInjYNLqvhtIVCi/9rWvZY8+U9znqcqKVJ19VSEw9S01BEqSJGmwaduKoCRJA8XvI0nSUNO2FUFJkiRJUjmDoCRJkiRVjEFQkiRJkirGIChJkiRJFWMQlCRJkqSKMQhKkiRJUsUYBCVJkiSpYgyCkiRJklQxBkFJkiRJqhiDoCRJkiRVjEFQkiRJkirGIChJkiRJFWMQlCRJkqSKMQhKkiRJUsW0dRDctWtXHBq5dOlSWL58eXjy5Ek2pveYx8yZM8OdO3eyMa1h3RYuXNhw2cyTebOM/sB8hw0bFjo6OsLJkyezsc9bu3Zt6b5stO3551rZRyyjbB3cT8+wXOYvSZIkvai2DYIcUJ8/fz5s2LAhG1Nu1qxZYd68eWHfvn3ZmGq5fft2WLlyZeju7g5Lly7NxraO/Xf58uUwfvz4bEzfpHDVl3UYCINhP6XlNgqikiRJUivaNgju2bMnrFu3LgwfPjwb86xqRGWpWG1Zs2ZNOHXqVG08VRcqPwz5Cky+KjRp0qQ4PcOKFSvClStXwty5c5+bdxEH8bye+RBUE17HPPPLpQK2evXqOO/58+fH5TOObUjTtRoK0nIZUnWNccuWLQuHDh1qWnHDp59+WlvHtF/yFSzmN3HixLhtv/VbvxW++c1v1vbL3/zN38Tpv/Od78TXMw2vBcs9cOBA2LRpU3yMevupuP3cv3v37nP7Cfm/Y7PKcDKY9xPYR+yrZusgSZIkNdKWQZCD7Zs3b4bZs2dnYxqjSsOB+8WLF+NBOq99/PhxHB49ehQPxJknge/o0aOxKkQgIHyMGDEiHD9+PMyYMSNcuHChYcWH+axatSqcOHEihpeHDx/G8U+fPo3zWr9+fZw363HmzJlw7dq1cOTIkTjvc+fOxaoSFU7WlemYD/PLB4Uy+eWyTWA+VJgYt2DBgvCjH/2oR2gu873vfS9uK9Wxzs7OuK+K7t27F9f1r/7qr8K7775b2y9f/OIXw/Xr18OXv/zluO5U1zZv3hwDDduJadOmxdt6+wn57Wc9urq6ws9+9rPn9hPBL/0d2Z/bt28vXd+8wb6fkPZR2meSJElSX7RlEOQAfNSoUTGkgQNxqisTJkwIZ8+ejbc8zleJpk+fHq5evZo9eoYD/vfeey8GC8IEUrikMkNASYGhFazXnDlzwqJFi+K8OcAHVR8Cw5YtW+Jj1m/MmDHxfh5hlOkIB2A+zI/5NlK2XObD/HqD5bIvCLuE1mPHjmXPfIYgw/qXGTt2bFi8eHG8n7YBrN/IkSNrAavefsLBgwfjAP6+kydPjvfzCE1UeJcsWRJfzzqzvOLft2iw7yewXuyrZn9zSZIkqZG2DYL5KhIVnVRBoqrDLY9T8MpjWgIEIaMYFm/dulULkQRCKje9OSBvFERSWE2BlXnXQzNFpmMdCbbNAk7xeeY/evTo7FHrCMvNEMxSAC8i3JaFn+L6NdoeqnYE5/z217N169baPqVZ51DfT5IkSdLL0pZBkINoKoJ9RUAkKFLto7KUmvYRIhnHcww06aTy06p6AeEXv/hF2LhxY2x+mALr1KlTs2d7IphQnUzrwFAWaPOKy2X+Dx48yB61Lh+UmoWq3iiuX739xP6mSrdt27a43fwt+JvUk/ZnGlIlsZ7Bvp8kSZKkl6Vtg2BZs02a6tHUr6wfHwfsBAEqgPkLxBAomR8VQPqj0XcPTEdftd40G8zPg+aLu3fvzp7piepVWUWQ9aYvGRfCQaqONev7xvp/+OGHPZZLH8ey/dBIaiZZbKL6olg/+mKmfnCt7ieeL6sI0nySqi6v4/WsL3+rfHW3zGDfT2C92FesqyRJktRXbRkEOXBPF39pBQfs6eIyXByE+6npIT8tkfp7cQEQLibCc1x8hMeM56CcylGzq4Yy7d69e2PTTub9xhtvxKD5pS99KfYlS00+CbCp7x/TMU26GiY/c5HWj/WlOpZ+VqAe1p+L3KTloi8/l8Hr2Ua2l/Vtttz8fklXwyxTvABKvf1E6KUimJp80veOK74S4ov7iSop7wHGsx4EumaV08G+n1C8sI4kSZLUFx3dtJkboggD9VafMLBjx45w+PDhWCFqJFWKmgUF9R+qmgS7Zs03q45qNRXGZuFS0sBq9H0kSdJg1JYVQVDdaeWH4gmMrfzwfCtSU00OCIpDK78/11cvY7n5i9UUh3xT2f6Sgk2zZq4vYqjvp7RvDIGSJEl6UW1bEZQkaaD4fSRJGmratiIoSZIkSSpnEJQkSZKkijEISpIkSVLFGAQlSZIkqWIMgpIkSZJUMQZBSZIkSaoYg6AkSZIkVYxBUJIkSZIqxiAoSZIkSRVjEJQkSZKkijEISpIkSVLFGAQlSZIkqWIMgpIkSZJUMQZBSZIkSaqYtg6Cu3btikMjly5dCsuXLw9PnjzJxvQe85g5c2a4c+dONqZ3WPbChQvDyZMn4zyYF/NMWlnH/DoU77/o9kmSJElqL20bBAlA58+fDxs2bMjGlJs1a1aYN29e2LdvXzZm4A0fPjx0dnaGpUuXZmM+Q4DbsWNHeOedd+J09bAdly9fDuPHj8/GPDMYtk+SJEnS4NK2QXDPnj1h3bp1PcITFTIqb8XK3Zo1a8KpU6dq49euXRs6OjriwP2EcDls2LA4ftKkSXF6hhUrVoQrV66EuXPnPjfvIiqUvJ75UKlj/qki+IMf/CCsXr06zmv+/PlxeWfOnAkjR46MgQ7Mn2UzD16TqocM3CcMFtenuH2SJEmSqq0tgyCB5+bNm2H27NnZmMaoohGuLl68GJtn8trHjx/H4dGjRzFkMU8C1tGjR0N3d3cMYYS2ESNGhOPHj4cZM2aECxcuPFeRy2M+VOZYzscffxw++uij7JlnPve5z4UjR47EeZ07dy6Gv2PHjoWVK1dmU4SwdevWuGzWYcmSJeH69evZM8+MGzfuufXJb58kSZIktWUQvH37dhg1alQMaSDcUUGbMGFCOHv2bLzlcb7/4PTp08PVq1ezR89QTXzvvfdiIEshKoXLTZs2hYcPH8aw2KrTp0+HRYsWxfkRztavX589U45KIUGU9QVhlEofywaVvqlTp8b7zZRtnyRJkqRqatsgSEhL6HtHBY3xCxYsiLc83rJlSzbFZ5iWShshshgWb926VQuRBEKqccyrVb0NYoTMTz75JHv0bLvu37+fPZIkSZKkvmnLIEhYoyLYVwREgiJBjL51VBRBiGQczzE8ffq01nevFVTleoMw+tprr2WPnm3XmDFjskeSJEmS1DdtGwTLmm3SHJOrc5b146NaR1CjApi/QAyBkvlRAezq6ooXbwHTpQvGtGrx4sXx9anP4f79+7NnytE0lQvFpKoj603fPy6Eg0OHDj3XR7CetH2SJEmS1JZBsLcXR8lfXIafm+A+zT+pyPHTC6lPHxdhWbVqVXxu+/bt8THjCYoPHjxoetVQ5sP8WQ7TLlu2LHvmMyyT8JmuGsqFYrhgTLJz584YZlmHTz/9tLSPYHF98tsnSZIkSR3dtHEcoghD9VafEMXv7x0+fLjh7+8h9QMs6zPYX7gQzJtvvhn7IzZaLtN961vfir8jWGyGSpPVjRs3Nr1a6avYPkmqkkbfR5IkDUZtWREEoamVH1InMLbyw/OtYF7pdwaLQ/qdwPSYyh9Vy2bhjBBLCCTU3r17N84nzYPqZKpK1vMyt0+SJElSe2jbiqAkSQPF7yNJ0lDTthVBSZIkSVI5g6AkSZIkVYxBUJIkSZIqxiAoSZIkSRVjEJQkSZKkijEISpIkSVLFGAQlSZIkqWIMgpIkSZJUMQZBSZIkSaoYg6AkSZIkVYxBUJIkSZIqxiAoSZIkSRVjEJQkSZKkijEISpIkSVLFtHUQ3LVrVxwauXTpUli+fHl48uRJNqYc082cOTPcuXMnGzP4rF27NnR0dISFCxeGP/iDP2i67QmvO3nyZNwHvJZ5vPnmm73e3qGwj5IXXVf2LftN/Su9NyVJkvRytW0Q5ED//PnzYcOGDdmYcrNmzQrz5s0L+/bty8YMTYS4R48ehYsXL4bOzs7wX/7LfwlbtmzJnq0vHWQvXbo0PH78ON6/fft2+NGPfhQuX74cxo8fH8dJr8LOnTvD7t27h8TJBUmSpKGkbYPgnj17wrp168Lw4cOzMSEeTFLxKh5UrlmzJpw6dao2nttJkybFyhi3+em/853vxPHDhg2LYTOhQsT4/HOpwpYqdQz5KhIhLD+eaVNlMv9cfnwZnqOC9/7774fZs2fH1zK/VBFkXVgn5pXfHl534MCBsGnTpjhu7ty54ezZs+H1118Phw8frlXMmN/EiRPjPFiXu3fvxtu0fiyH6VasWBGuXLkS55PfZ0XMj3kz8Pr8vkz7LM07bTvPM/1bb71Vew3zSX+n/H6tt72NlP39kJ9XGs9yt27dGg4dOtRjuWV4nopzmkf+b8l80jIZeJzGMx2vYzzbwLg0j/R3RX4e+XnnFfdpen1aTnoN49P2cDtjxoza9K9qOzgRsWTJkrivJUmS9PK0ZRDkwP/mzZsxFLWCg00OUqmmcQC6evXqsHfv3tDd3R3Wr18fD/px/fr18OUvfzmOX7lyZdi8eXOcnoPY/fv3x0paeo4gmrAuVNtOnDgRjh07FsME67hx48Y4jueYJuF5KpmsT6rSNapsEnap4C1YsCDOj+pekgLatm3b4rpxkM32sd7Xrl2L00ybNi3ugwsXLsSD/3PnzoXf+I3fiM8l9+7di+OpNn7/+9+P+4v5sc2EaBw/fjy+nvk0qyQSGHfs2BG3b86cObX9xXbm593V1RXOnDkTnyvu/1WrVsVlsp+YJu1Xtvfo0aPPbW899f5+vIa/cZoXt4xn/1Kp4gTCwYMHs7nU99FHH4WPP/44rueHH35YW9f0N2beqfKV1pNAzokM9s/kyZPje4V58PdlXdnOVt8nVLuLfy9e38zo0aPjfFNl+VVtx+LFi2N1v9HfUJIkSb3TlkGQg91Ro0aFESNGxMep2jBhwoR4YMptsSIxffr0cPXq1RiOHj58WAuRHASng/2xY8fGg1IQFhKCAUEuhR/mlUdFg7DGPKdOnRrHcdDLgfGiRYvicwSO5PTp02HKlCkxoKXnmH9fDoTZFxzQE1pA9e/GjRtxO3lu5MiRPaqm9Xzxi1+M+62IbSYcNgt+RVQY2R8sm/2TsK/T/ubvxz5K8vuffczfgKa9rNeYMWPiePYr0t+P7eXvmQJGmWZ/v4TpWgl+RYRR5s3fk9AL1vvWrVvxFsVl5vcPIY4TEsyDbeXvib68T3rz92K5+ffGq9oOpm32N5QkSVLvtG0Q5MAx4QA+VUOomnHL47I+dDz34MGD7FFPhI2yMMQBKwfJqWlbqiAmZcGC0NkIgZUgxPyWLVsWK2N9ORAubk8+NDVbhzwCWQrWab+l7SVo91Z+fnlUh1LTQZ5nPyT19n8RwYTpmAchhEoi+6Geen8/QsmRI0diFYvxBJlWKmlF9YIlzS3TMvkb59XbP0WtvE/6+vcqrver3g5JkiS9PG0ZBAkBVAT7gtemSkWr0oVmOHBNzeOaqXdQnVDBY15pyFeseqO4PQSi+/fvx/vN1qERKmOsF/N75513YoB7UQQyqkGpGSv7k+DeW7wm/S0Ynj59WqtYlWn092Ofs+8ZT3PhZs1MW0UYozLH/mPeNJXsi1bfJ638vXpzYiAZ6O2QJEnSy9G2QbCsKRkHlvWaxXEQTDDitVTQUhNDmo9SLfq7v/u7+LgZKkb0fWqGSlXq/0awoF9VQvPH1P8KVFxYh74EkLQ96WIb9HFLzfB4jiuN9na+rE++WS2hm3m9bOyDfEWwFfn9CtazN5W8/N+P+1ygJh+ais0lX4bi379Vrb5PGv296OtHM2G2lf+NF9Ff20HIzDf1liRJ0otryyBI0OOAPYW5ZjgIpgJBiOC1XICEC5HQTI1QQPPAz3/+89nUz6OaQfjgQJUrZr799ttxflSi6mE5VJhoBjdu3LjwxhtvZM8863dFlYr1YR04QGcd+hJA0vZs3779uXkRBpEuGtMqKmbsF+ZHoKCKx3JS6Gx21dB6Uv8wmmYyby6sw77tTaWq+Pdju3nMeIJGuhJqXr2/H4+5oE36O9BENFULOWnQylVD66FvKM0m2Wf8/Vnf3vaDa/Q+Ifildav396LJNP0seT3bXWzW2Yr+3g7Qh5CfeOnL+1+SJEnlOrpphzVEcdBYb/U56Ocgnp9BaHYAmaolZX0GB0o6aO/LxUheBE37CFwDvdxXhWaR6YIl7YywS/jjf2AoYztojkswbPe/mYa2Rt9HkiQNRm1ZEQRVhlZ+KJ7A2MoPz79sLDddFIWBClSjdaWZXP6CJvmB+aRmdb1FVQh9ueBLPcVtyw99beL6MqRK4MsMFOy3su1k6Gu18GWgGv61r30tezR0UR1OFUxJkiS9PG1bEZQkaaD4fSRJGmratiIoSZIkSSpnEJQkSZKkijEISpIkSVLFGAQlSZIkqWIMgpIkSZJUMQZBSZIkSaoYg6AkSZIkVYxBUJIkSZIqxiAoSZIkSRVjEJQkSZKkijEISpIkSVLFGAQlSZIkqWIMgpIkSZJUMQZBSZIkSaqYtg6Cu3btikMjly5dCsuXLw9PnjzJxvQflrFw4cJw8uTJuNyZM2eGO3fuZM9KkiRJ0sBo2yBI0Dp//nzYsGFDNqbcrFmzwrx588K+ffuyMf1n+PDhobOzMyxdujQbI0mSJEkDr22D4J49e8K6deti+EqovlGRK1bh1qxZE06dOlUbT4gcNmxY6OjoCJMmTaqNp5LH66kgpucYl6bNVx+5zzgGnmee+YqgJEmSJL0qbRkECW43b94Ms2fPzsY0Nn78+BjqLl68GF+7YsWKcPTo0dDd3R2D2+rVq2tNR8+ePRsD5uPHj8PkyZPDxo0bw8cffxxOnDgR9u/fH19P0OP+7du34zxWrlwZg6kkSZIkDQZtGQQJYKNGjQojRoyIjwlmVOYmTJgQgxy3xQre9OnTw9WrV2MYRAqRmzZtCg8fPozBDxMnTozPUWkkPK5fvz4GSeY5evToOA1NPwmijAfzliRJkqTBom2DIOEtIZhRmWP8ggULapW6LVu2ZFP0dOvWrVpYJPRdv349vgZUAVPArCc1AU1NQ7du3Zo9I0mSJEmvXlsGQUIcFcG+IixSASQsMjx9+jReVKZV6cIzaR47d+6MjyVJkiRpMGjbIJhvzpnQVJOrdqYmm3k0C6UJJxXArq6ucObMmTie5qP5C8b0Fq+jv6AkSZIkDRZtGQTzF39pRf7iMrz2+PHjYdWqVbFZ5/bt2+PjsvBYD1chJUzShHTu3Lnh7bffjvOnsihJkiRJr1pHN20XhyiCWr3V5+caduzYEQ4fPtzjJyTKpIvG1OszKElSI42+jyRJGozasiKIVn8ovtUfnpckSZKkdtG2FUFJkgaK30eSpKGmbSuCkiRJkqRyBkFJkiRJqhiDoCRJkiRVjEFQkiRJkirGIChJkiRJFWMQlCRJkqSKMQhKkiRJUsUYBCVJkiSpYgyCkiRJklQxBkFJkiRJqhiDoCRJkiRVjEFQkiRJkirGIChJkiRJFWMQlCRJkqSKaesguGvXrjg0cunSpbB8+fLw5MmT+PjOnTth5syZcbwkSZIktaO2DYIEufPnz4cNGzZkY8rNmjUrzJs3L+zbty8bI0mSJEntrW2D4J49e8K6devC8OHDszHPqn0LFy6Mt3lr1qwJp06dCh9//HFYvXp1uHLlSpg/f34Mk0w7adKk0NHREV9rtVCSJEnSUNeWQZDwdvPmzTB79uxsTGPjx4+PYe/nP/95OHLkSJgxY0Y4d+5crBZu3bo1BsDu7u6wZMmScP369exVkiRJkjQ0tWUQvH37dhg1alQYMWJEfHzy5MlY0ZswYUI4e/ZsvOVxvv/g9OnTw9WrV7NHzxAoqQ5u2rQpPqZyOHXq1HhfkiRJkoaqtg2CDx8+zB6FsHTp0ljRY/yCBQviLY+3bNmSTVGO6e7fv589kiRJkqT20JZBkIofFcEXxXzGjBmTPZIkSZKk9tC2QZCK4OPHj7Mxz9AXsLOzM94W0SyU5qF5TEd/QS48g0OHDtlHUJIkSdKQ15ZBMF385eLFi9mYxvIXl6FfIdXEdNXQnTt3xvBIn8JPP/3UPoKSJEmShry2DILgAi8HDhyo/VB8I1T6uCIoAZKfmyD4PX36NF41lHGERPoU/s7v/E548OBBrDhKkiRJ0lDVtkGw1R+Kb/TD84RIfjqCaiDDqlWrwvHjx0ublkqSJEnSUNHRTalriCKcDeHVlyS1Cb+PJElDTdtWBCVJkiRJ5QyCkiRJklQxBkFJkiRJqhiDoCRJkiRVjEFQkiRJkirGIChJkiRJFWMQlCRJkqSKMQhKkiRJUsUYBCVJkiSpYgyCkiRJklQxBkFJkiRJqhiDoCRJkiRVjEFQkiRJkirGIChJkiRJFdPWQXDXrl1xaOTSpUth+fLl4cmTJ9mY+k6ePBkWLlzY0rSSJEmSNFi1bRAk4J0/fz5s2LAhG1Nu1qxZYd68eWHfvn3ZGEmSJElqb20bBPfs2RPWrVsXhg8fno0J4c6dO7Gix23emjVrwqlTp+J4AuTMmTPDW2+9FTo6OsKwYcPiuLxvfetb8blJkybV5kWVkHkznoHqIdL8yp4D99N4q42SJEmSBkJbBkHC2c2bN8Ps2bOzMY2NHz8+hrqLFy/Gx9evXw9/+7d/G7q7u8O2bdvC5s2bawHt7NmzMWA+fvw4TJ48OWzdujWOT5VHxp84cSKsWrWqFiCZ35IlS+L8CJ27d++O8+N5XsdyeR2aVTAlSZIk6UW1ZRC8fft2GDVqVBgxYkR8nKpuEyZMiEGOWx7n+w9Onz49XL16Nd4fO3Zs2LRpU7xPcHv48GG4du1afDxx4sQYMKk0Eu5AqCN4EhgZv2jRojBnzpxw+vTp+DzzW7x4cby/cuXKeAuenzJlSpg2bVp8Ha9nPlYFJUmSJPWntg2ChLdk6dKlsRrH+AULFsRbHm/ZsiWboqcxY8bEsFiGKmAKmAnVvK6uruxRiKGOCmPSaH4EU+ZHMF22bFmcT6oOSpIkSVJ/aMsgSOiiIthX9+/fj2ER3PK4EYIcATFJFcJWUHEklKaB19FUVZIkSZL6S9sGQSqCxcoaAauzs7M0aNEslOahuHfvXq1ZZ775Zj2pApj6/p05cyZ8+OGHteag9fA806a+hGvXrvWCMZIkSZL6XVsGweLFX5opXlxm6tSp8SqiNNfcv39/OHLkSAx7jaSfn6A6SBPPo0ePxp+maITneR3LZVmE1FaWJUmSJEkvoqOb9ohDFOGp3upTZduxY0c4fPhw02CVLhpDn0Fex1VBCYI20ZQktaLR95EkSYNRW1YE0eoPxRP8WvnheUmSJElqF21bEZQkaaD4fSRJGmratiIoSZIkSSpnEJQkSZKkijEISpIkSVLFGAQlSZIkqWIMgpIkSZJUMQZBSZIkSaoYg6AkSZIkVYxBUJIkSZIqxiAoSZIkSRVjEJQkSZKkijEISpIkSVLFGAQlSZIkqWIMgpIkSZJUMQZBSZIkSaqYtg6Cu3btikMjly5dCsuXLw9PnjzJxvR08uTJMGnSpHDnzp1sTLm1a9c2XVZfsW4LFy4MHR0dcTn1sK5MV7Yt9daP7Zo5c2bcD+jP7ZAkSZI0OLRtECTYnD9/PmzYsCEbU27WrFlh3rx5Yd++fdmYwefx48fx9vbt2+HgwYPxfm/xui1btmSPJEmSJFVZ2wbBPXv2hHXr1oXhw4dnY55Vv6iYFat7a9asCadOnaqNJ0QOGzYsVuCOHTsWxyVUyxjPwDRMy7hDhw6FrVu31qppVOfSdPWqdEX55aYqJMPcuXPD2bNnw+uvv16r3DXyrW99q8c8kCp9vH7ixIm14fd+7/fClStXwvz582vz/vTTT+NrmUejCqQkSZKkoaktgyDh5+bNm2H27NnZmMbGjx8fg8/Fixfja1esWBG2bdsWuru7symeIdzt378/VuZ4buXKlTFwUmkjTO7cuTPeJ1BRiWR+qZrXrDJZXC7hcfXq1WHEiBHhwoULYcaMGeHcuXOxgtkIgZEKZ5oH4bTo3r17sQJ669at8MMf/vC5eZ84cSIuk/UnCLPdkiRJktpHWwZBgtqoUaNiiEKqzk2YMCEGJW55nO8LN3369HD16tX42tGjR8dgh02bNsXHWLp0aQyYBEfwmjKnT58OU6ZMCdOmTYsVyc2bN8fXNaoKli33xo0b4dq1a/Fxq6jy5edBtS9VBZOxY8fGfVAPAZJtZP3nzJmTjZUkSZLULto2CD58+DB79CzAUSFj/IIFC+Itj8v6zPHcgwcPskc95S/awlBWbUsInARRplu2bFno6uqqVQfLFJdLUBszZkz2qHWTJ0+uBeB6mG+jIFgv4EqSJElqD20ZBAk5VAT7gtemCmBRuqAMgY4gSVPQeqjKMU0a8pXEMsXlEgzv37+fPWpdPnA2CrWSJEmSqqttgyAVwWIFjiDW2dlZGshoFkoljOaQhEgu/gL6AJaFKZpb0l+wzOLFi8OZM2dqF1/hgivNLhjDOrOc/HJT89LeoN8ffftA/77UzFOSJEmSkrYMggSfdPGXVuQvLkOfvt27d4ft27fHZp1f+MIXYnNLUOWj4kbTS67k+fbbb9f6/hEi01VDuegK1UPmxzwIn0eOHOlxBdMi1vn48eO15bbymjI0fT1w4ECcB+vW7Gcx2BaCb/6qoZIkSZLaW0c37RaHKMJOvdUn1OzYsSMcPny4aZhKF43xd/YkSX3R6PtIkqTBqC0rgmj1h+IJjK388PyLKl5oJj+k3yNshmnS7wwWh2ZNTyVJkiQpaduKoCRJA8XvI0nSUNO2FUFJkiRJUjmDoCRJkiRVjEFQkiRJkirGIChJkiRJFWMQlCRJkqSKGdJXDV20aFH84XVJkl4lfsLnzJkz2SNJkga/IR0EJUmSJEm9Z9NQSZIkSaqUEP4//dsQxIFJKuoAAAAASUVORK5CYII=;" vertex="1" parent="WIyWlLk6GJQsqaUBKTNV-1">
          <mxGeometry x="870" y="180" width="898" height="801" as="geometry" />
        </mxCell>
        <mxCell id="k1KH_HDRuEAmuBHgqj1_-123" value="use" style="html=1;verticalAlign=bottom;endArrow=open;dashed=1;endSize=8;curved=0;rounded=0;entryX=0.5;entryY=1;entryDx=0;entryDy=0;exitX=0.457;exitY=0;exitDx=0;exitDy=0;exitPerimeter=0;" edge="1" parent="WIyWlLk6GJQsqaUBKTNV-1" source="k1KH_HDRuEAmuBHgqj1_-23" target="zkfFHV4jXpPFQw0GAbJ--6">
          <mxGeometry relative="1" as="geometry">
            <mxPoint x="270" y="480" as="sourcePoint" />
            <mxPoint x="366" y="478" as="targetPoint" />
            <Array as="points">
              <mxPoint x="290" y="520" />
              <mxPoint x="80" y="520" />
            </Array>
          </mxGeometry>
        </mxCell>
        <mxCell id="k1KH_HDRuEAmuBHgqj1_-124" value="use" style="html=1;verticalAlign=bottom;endArrow=open;dashed=1;endSize=8;curved=0;rounded=0;exitX=0.562;exitY=0;exitDx=0;exitDy=0;exitPerimeter=0;entryX=0.983;entryY=0.176;entryDx=0;entryDy=0;entryPerimeter=0;" edge="1" parent="WIyWlLk6GJQsqaUBKTNV-1" source="k1KH_HDRuEAmuBHgqj1_-47" target="zkfFHV4jXpPFQw0GAbJ--6">
          <mxGeometry relative="1" as="geometry">
            <mxPoint x="552" y="722" as="sourcePoint" />
            <mxPoint x="520" y="260" as="targetPoint" />
            <Array as="points">
              <mxPoint x="520" y="360" />
            </Array>
          </mxGeometry>
        </mxCell>
        <mxCell id="k1KH_HDRuEAmuBHgqj1_-125" value="use" style="html=1;verticalAlign=bottom;endArrow=open;dashed=1;endSize=8;curved=0;rounded=0;entryX=0.25;entryY=1;entryDx=0;entryDy=0;exitX=0.126;exitY=0.006;exitDx=0;exitDy=0;exitPerimeter=0;" edge="1" parent="WIyWlLk6GJQsqaUBKTNV-1" source="k1KH_HDRuEAmuBHgqj1_-36" target="zkfFHV4jXpPFQw0GAbJ--6">
          <mxGeometry relative="1" as="geometry">
            <mxPoint x="5" y="581.5" as="sourcePoint" />
            <mxPoint x="101" y="579.5" as="targetPoint" />
          </mxGeometry>
        </mxCell>
        <mxCell id="k1KH_HDRuEAmuBHgqj1_-128" value="use" style="html=1;verticalAlign=bottom;endArrow=open;dashed=1;endSize=8;curved=0;rounded=0;" edge="1" parent="WIyWlLk6GJQsqaUBKTNV-1">
          <mxGeometry relative="1" as="geometry">
            <mxPoint x="650" y="941" as="sourcePoint" />
            <mxPoint x="910" y="940" as="targetPoint" />
            <Array as="points">
              <mxPoint x="880" y="940" />
            </Array>
          </mxGeometry>
        </mxCell>
        <mxCell id="k1KH_HDRuEAmuBHgqj1_-131" value="use" style="html=1;verticalAlign=bottom;endArrow=open;dashed=1;endSize=8;curved=0;rounded=0;entryX=0.064;entryY=0.993;entryDx=0;entryDy=0;entryPerimeter=0;" edge="1" parent="WIyWlLk6GJQsqaUBKTNV-1" target="k1KH_HDRuEAmuBHgqj1_-122">
          <mxGeometry relative="1" as="geometry">
            <mxPoint x="445" y="591" as="sourcePoint" />
            <mxPoint x="705" y="590" as="targetPoint" />
            <Array as="points">
              <mxPoint x="800" y="640" />
              <mxPoint x="800" y="840" />
            </Array>
          </mxGeometry>
        </mxCell>
        <mxCell id="k1KH_HDRuEAmuBHgqj1_-132" value="use" style="html=1;verticalAlign=bottom;endArrow=open;dashed=1;endSize=8;curved=0;rounded=0;entryX=0;entryY=0.811;entryDx=0;entryDy=0;entryPerimeter=0;" edge="1" parent="WIyWlLk6GJQsqaUBKTNV-1" target="k1KH_HDRuEAmuBHgqj1_-122">
          <mxGeometry relative="1" as="geometry">
            <mxPoint x="290" y="970.29" as="sourcePoint" />
            <mxPoint x="470" y="810" as="targetPoint" />
            <Array as="points">
              <mxPoint x="320" y="970" />
              <mxPoint x="320" y="810" />
              <mxPoint x="600" y="810" />
            </Array>
          </mxGeometry>
        </mxCell>
        <mxCell id="k1KH_HDRuEAmuBHgqj1_-168" value="Text" style="edgeLabel;html=1;align=center;verticalAlign=middle;resizable=0;points=[];" vertex="1" connectable="0" parent="k1KH_HDRuEAmuBHgqj1_-132">
          <mxGeometry x="0.9148" y="-5" relative="1" as="geometry">
            <mxPoint x="1" as="offset" />
          </mxGeometry>
        </mxCell>
        <mxCell id="k1KH_HDRuEAmuBHgqj1_-133" value="use" style="html=1;verticalAlign=bottom;endArrow=open;dashed=1;endSize=8;curved=0;rounded=0;" edge="1" parent="WIyWlLk6GJQsqaUBKTNV-1">
          <mxGeometry relative="1" as="geometry">
            <mxPoint x="160" y="381" as="sourcePoint" />
            <mxPoint x="1770" y="640" as="targetPoint" />
            <Array as="points">
              <mxPoint x="280" y="381" />
              <mxPoint x="280" y="280" />
              <mxPoint x="840" y="280" />
              <mxPoint x="840" y="120" />
              <mxPoint x="1880" y="120" />
              <mxPoint x="1880" y="640" />
            </Array>
          </mxGeometry>
        </mxCell>
        <mxCell id="k1KH_HDRuEAmuBHgqj1_-134" value="BST" style="swimlane;fontStyle=2;align=center;verticalAlign=top;childLayout=stackLayout;horizontal=1;startSize=26;horizontalStack=0;resizeParent=1;resizeLast=0;collapsible=1;marginBottom=0;rounded=0;shadow=0;strokeWidth=1;" vertex="1" parent="WIyWlLk6GJQsqaUBKTNV-1">
          <mxGeometry x="960" y="1100" width="280" height="320" as="geometry">
            <mxRectangle x="230" y="140" width="160" height="26" as="alternateBounds" />
          </mxGeometry>
        </mxCell>
        <mxCell id="k1KH_HDRuEAmuBHgqj1_-135" value="root" style="text;align=left;verticalAlign=top;spacingLeft=4;spacingRight=4;overflow=hidden;rotatable=0;points=[[0,0.5],[1,0.5]];portConstraint=eastwest;" vertex="1" parent="k1KH_HDRuEAmuBHgqj1_-134">
          <mxGeometry y="26" width="280" height="26" as="geometry" />
        </mxCell>
        <mxCell id="k1KH_HDRuEAmuBHgqj1_-139" value="" style="line;html=1;strokeWidth=1;align=left;verticalAlign=middle;spacingTop=-1;spacingLeft=3;spacingRight=3;rotatable=0;labelPosition=right;points=[];portConstraint=eastwest;" vertex="1" parent="k1KH_HDRuEAmuBHgqj1_-134">
          <mxGeometry y="52" width="280" height="8" as="geometry" />
        </mxCell>
        <mxCell id="k1KH_HDRuEAmuBHgqj1_-140" value="+root" style="text;align=left;verticalAlign=top;spacingLeft=4;spacingRight=4;overflow=hidden;rotatable=0;points=[[0,0.5],[1,0.5]];portConstraint=eastwest;" vertex="1" parent="k1KH_HDRuEAmuBHgqj1_-134">
          <mxGeometry y="60" width="280" height="26" as="geometry" />
        </mxCell>
        <mxCell id="k1KH_HDRuEAmuBHgqj1_-141" value="+root=" style="text;align=left;verticalAlign=top;spacingLeft=4;spacingRight=4;overflow=hidden;rotatable=0;points=[[0,0.5],[1,0.5]];portConstraint=eastwest;" vertex="1" parent="k1KH_HDRuEAmuBHgqj1_-134">
          <mxGeometry y="86" width="280" height="26" as="geometry" />
        </mxCell>
        <mxCell id="k1KH_HDRuEAmuBHgqj1_-142" value="+add_data(data)" style="text;align=left;verticalAlign=top;spacingLeft=4;spacingRight=4;overflow=hidden;rotatable=0;points=[[0,0.5],[1,0.5]];portConstraint=eastwest;" vertex="1" parent="k1KH_HDRuEAmuBHgqj1_-134">
          <mxGeometry y="112" width="280" height="26" as="geometry" />
        </mxCell>
        <mxCell id="k1KH_HDRuEAmuBHgqj1_-143" value="+add_to_tree(node,data)" style="text;align=left;verticalAlign=top;spacingLeft=4;spacingRight=4;overflow=hidden;rotatable=0;points=[[0,0.5],[1,0.5]];portConstraint=eastwest;" vertex="1" parent="k1KH_HDRuEAmuBHgqj1_-134">
          <mxGeometry y="138" width="280" height="26" as="geometry" />
        </mxCell>
        <mxCell id="k1KH_HDRuEAmuBHgqj1_-144" value="+DFS(node, block)" style="text;align=left;verticalAlign=top;spacingLeft=4;spacingRight=4;overflow=hidden;rotatable=0;points=[[0,0.5],[1,0.5]];portConstraint=eastwest;" vertex="1" parent="k1KH_HDRuEAmuBHgqj1_-134">
          <mxGeometry y="164" width="280" height="26" as="geometry" />
        </mxCell>
        <mxCell id="k1KH_HDRuEAmuBHgqj1_-145" value="+BFS" style="text;align=left;verticalAlign=top;spacingLeft=4;spacingRight=4;overflow=hidden;rotatable=0;points=[[0,0.5],[1,0.5]];portConstraint=eastwest;" vertex="1" parent="k1KH_HDRuEAmuBHgqj1_-134">
          <mxGeometry y="190" width="280" height="26" as="geometry" />
        </mxCell>
        <mxCell id="k1KH_HDRuEAmuBHgqj1_-146" value="+each(type,block)" style="text;align=left;verticalAlign=top;spacingLeft=4;spacingRight=4;overflow=hidden;rotatable=0;points=[[0,0.5],[1,0.5]];portConstraint=eastwest;" vertex="1" parent="k1KH_HDRuEAmuBHgqj1_-134">
          <mxGeometry y="216" width="280" height="26" as="geometry" />
        </mxCell>
        <mxCell id="k1KH_HDRuEAmuBHgqj1_-147" value="+read_all" style="text;align=left;verticalAlign=top;spacingLeft=4;spacingRight=4;overflow=hidden;rotatable=0;points=[[0,0.5],[1,0.5]];portConstraint=eastwest;" vertex="1" parent="k1KH_HDRuEAmuBHgqj1_-134">
          <mxGeometry y="242" width="280" height="26" as="geometry" />
        </mxCell>
        <mxCell id="k1KH_HDRuEAmuBHgqj1_-149" value="+write_all" style="text;align=left;verticalAlign=top;spacingLeft=4;spacingRight=4;overflow=hidden;rotatable=0;points=[[0,0.5],[1,0.5]];portConstraint=eastwest;" vertex="1" parent="k1KH_HDRuEAmuBHgqj1_-134">
          <mxGeometry y="268" width="280" height="26" as="geometry" />
        </mxCell>
        <mxCell id="k1KH_HDRuEAmuBHgqj1_-148" value="+write_all" style="text;align=left;verticalAlign=top;spacingLeft=4;spacingRight=4;overflow=hidden;rotatable=0;points=[[0,0.5],[1,0.5]];portConstraint=eastwest;" vertex="1" parent="k1KH_HDRuEAmuBHgqj1_-134">
          <mxGeometry y="294" width="280" height="26" as="geometry" />
        </mxCell>
        <mxCell id="k1KH_HDRuEAmuBHgqj1_-150" value="Node&#xa;" style="swimlane;fontStyle=2;align=center;verticalAlign=top;childLayout=stackLayout;horizontal=1;startSize=26;horizontalStack=0;resizeParent=1;resizeLast=0;collapsible=1;marginBottom=0;rounded=0;shadow=0;strokeWidth=1;" vertex="1" parent="WIyWlLk6GJQsqaUBKTNV-1">
          <mxGeometry x="1020" y="1480" width="160" height="270" as="geometry">
            <mxRectangle x="230" y="140" width="160" height="26" as="alternateBounds" />
          </mxGeometry>
        </mxCell>
        <mxCell id="k1KH_HDRuEAmuBHgqj1_-152" value="data" style="text;align=left;verticalAlign=top;spacingLeft=4;spacingRight=4;overflow=hidden;rotatable=0;points=[[0,0.5],[1,0.5]];portConstraint=eastwest;" vertex="1" parent="k1KH_HDRuEAmuBHgqj1_-150">
          <mxGeometry y="26" width="160" height="26" as="geometry" />
        </mxCell>
        <mxCell id="k1KH_HDRuEAmuBHgqj1_-153" value="left" style="text;align=left;verticalAlign=top;spacingLeft=4;spacingRight=4;overflow=hidden;rotatable=0;points=[[0,0.5],[1,0.5]];portConstraint=eastwest;" vertex="1" parent="k1KH_HDRuEAmuBHgqj1_-150">
          <mxGeometry y="52" width="160" height="26" as="geometry" />
        </mxCell>
        <mxCell id="k1KH_HDRuEAmuBHgqj1_-154" value="right" style="text;align=left;verticalAlign=top;spacingLeft=4;spacingRight=4;overflow=hidden;rotatable=0;points=[[0,0.5],[1,0.5]];portConstraint=eastwest;" vertex="1" parent="k1KH_HDRuEAmuBHgqj1_-150">
          <mxGeometry y="78" width="160" height="26" as="geometry" />
        </mxCell>
        <mxCell id="k1KH_HDRuEAmuBHgqj1_-155" value="" style="line;html=1;strokeWidth=1;align=left;verticalAlign=middle;spacingTop=-1;spacingLeft=3;spacingRight=3;rotatable=0;labelPosition=right;points=[];portConstraint=eastwest;" vertex="1" parent="k1KH_HDRuEAmuBHgqj1_-150">
          <mxGeometry y="104" width="160" height="8" as="geometry" />
        </mxCell>
        <mxCell id="k1KH_HDRuEAmuBHgqj1_-156" value="+data" style="text;align=left;verticalAlign=top;spacingLeft=4;spacingRight=4;overflow=hidden;rotatable=0;points=[[0,0.5],[1,0.5]];portConstraint=eastwest;" vertex="1" parent="k1KH_HDRuEAmuBHgqj1_-150">
          <mxGeometry y="112" width="160" height="26" as="geometry" />
        </mxCell>
        <mxCell id="k1KH_HDRuEAmuBHgqj1_-157" value="+data=" style="text;align=left;verticalAlign=top;spacingLeft=4;spacingRight=4;overflow=hidden;rotatable=0;points=[[0,0.5],[1,0.5]];portConstraint=eastwest;" vertex="1" parent="k1KH_HDRuEAmuBHgqj1_-150">
          <mxGeometry y="138" width="160" height="26" as="geometry" />
        </mxCell>
        <mxCell id="k1KH_HDRuEAmuBHgqj1_-158" value="+left" style="text;align=left;verticalAlign=top;spacingLeft=4;spacingRight=4;overflow=hidden;rotatable=0;points=[[0,0.5],[1,0.5]];portConstraint=eastwest;" vertex="1" parent="k1KH_HDRuEAmuBHgqj1_-150">
          <mxGeometry y="164" width="160" height="26" as="geometry" />
        </mxCell>
        <mxCell id="k1KH_HDRuEAmuBHgqj1_-159" value="+left=" style="text;align=left;verticalAlign=top;spacingLeft=4;spacingRight=4;overflow=hidden;rotatable=0;points=[[0,0.5],[1,0.5]];portConstraint=eastwest;" vertex="1" parent="k1KH_HDRuEAmuBHgqj1_-150">
          <mxGeometry y="190" width="160" height="26" as="geometry" />
        </mxCell>
        <mxCell id="k1KH_HDRuEAmuBHgqj1_-160" value="+right" style="text;align=left;verticalAlign=top;spacingLeft=4;spacingRight=4;overflow=hidden;rotatable=0;points=[[0,0.5],[1,0.5]];portConstraint=eastwest;" vertex="1" parent="k1KH_HDRuEAmuBHgqj1_-150">
          <mxGeometry y="216" width="160" height="26" as="geometry" />
        </mxCell>
        <mxCell id="k1KH_HDRuEAmuBHgqj1_-161" value="+right=" style="text;align=left;verticalAlign=top;spacingLeft=4;spacingRight=4;overflow=hidden;rotatable=0;points=[[0,0.5],[1,0.5]];portConstraint=eastwest;" vertex="1" parent="k1KH_HDRuEAmuBHgqj1_-150">
          <mxGeometry y="242" width="160" height="26" as="geometry" />
        </mxCell>
        <mxCell id="k1KH_HDRuEAmuBHgqj1_-166" value="" style="endArrow=diamondThin;endFill=1;endSize=24;html=1;rounded=0;" edge="1" parent="WIyWlLk6GJQsqaUBKTNV-1" source="k1KH_HDRuEAmuBHgqj1_-150" target="k1KH_HDRuEAmuBHgqj1_-148">
          <mxGeometry width="160" relative="1" as="geometry">
            <mxPoint x="990" y="1490" as="sourcePoint" />
            <mxPoint x="1150" y="1490" as="targetPoint" />
          </mxGeometry>
        </mxCell>
        <mxCell id="k1KH_HDRuEAmuBHgqj1_-167" value="use" style="html=1;verticalAlign=bottom;endArrow=open;dashed=1;endSize=8;curved=0;rounded=0;" edge="1" parent="WIyWlLk6GJQsqaUBKTNV-1" target="k1KH_HDRuEAmuBHgqj1_-122">
          <mxGeometry relative="1" as="geometry">
            <mxPoint x="1180" y="1511" as="sourcePoint" />
            <mxPoint x="1440" y="1510" as="targetPoint" />
            <Array as="points">
              <mxPoint x="1330" y="1510" />
              <mxPoint x="1320" y="1240" />
            </Array>
          </mxGeometry>
        </mxCell>
      </root>
    </mxGraphModel>
  </diagram>
</mxfile>
